<?xml version="1.0" encoding="UTF-8"?>
<svg version="1.1" xmlns="http://www.w3.org/2000/svg" width="500" height="500">
<path d="M0 0 C1.02186401 -0.00426498 2.04372803 -0.00852997 3.09655762 -0.01292419 C4.79281029 -0.01224442 4.79281029 -0.01224442 6.52333069 -0.0115509 C8.29898911 -0.01658882 8.29898911 -0.01658882 10.11051941 -0.02172852 C13.36930208 -0.02962754 16.6280466 -0.03290787 19.88683772 -0.0335443 C21.92501458 -0.03425431 23.96318474 -0.03638784 26.00135994 -0.03904152 C33.11920216 -0.0483084 40.23702561 -0.0523754 47.35487366 -0.05158997 C53.97520373 -0.05099126 60.59545177 -0.06149866 67.21576113 -0.07733363 C72.90591562 -0.09045538 78.59604349 -0.09577181 84.28621298 -0.09513456 C87.68138699 -0.0948806 91.07648839 -0.09767402 94.47164726 -0.10831261 C98.2701932 -0.1181504 102.06853113 -0.11521858 105.86708069 -0.10920715 C107.53600624 -0.11763641 107.53600624 -0.11763641 109.23864746 -0.12623596 C126.77916779 -0.05598144 141.29512054 5.4020274 154.27748108 17.13371277 C166.5100495 29.7423276 170.59367697 45.54754078 170.42982483 62.60636902 C169.88827804 75.14526014 165.81350992 87.01390262 158.27748108 97.13371277 C157.61748108 97.13371277 156.95748108 97.13371277 156.27748108 97.13371277 C156.02998108 97.75246277 155.78248108 98.37121277 155.52748108 99.00871277 C154.07119469 101.48439964 152.89935602 102.08496279 150.27748108 103.13371277 C150.27748108 103.79371277 150.27748108 104.45371277 150.27748108 105.13371277 C144.81962083 109.77513081 139.08234719 112.9914401 132.27748108 115.13371277 C136.20661279 122.81628331 140.72056017 129.94349567 145.54701233 137.07511902 C148.95020138 142.10748115 152.23358066 147.2161204 155.52235413 152.32365417 C155.9545929 152.99445007 156.38683167 153.66524597 156.83216858 154.35636902 C157.24305725 154.99719421 157.65394592 155.63801941 158.07728577 156.29826355 C158.86099971 157.49679109 159.6631431 158.68352277 160.48548889 159.85588074 C163.27748108 163.83796266 163.27748108 163.83796266 163.27748108 167.13371277 C163.93748108 167.13371277 164.59748108 167.13371277 165.27748108 167.13371277 C167.00404358 169.61808777 167.00404358 169.61808777 168.90248108 172.88371277 C169.5341217 173.95105652 170.16576233 175.01840027 170.81654358 176.11808777 C172.27748108 179.13371277 172.27748108 179.13371277 172.27748108 183.13371277 C157.96617378 183.8739528 144.70492216 182.6103049 132.90248108 173.71965027 C132.36623108 173.19629089 131.82998108 172.67293152 131.27748108 172.13371277 C131.27748108 171.47371277 131.27748108 170.81371277 131.27748108 170.13371277 C130.61748108 170.13371277 129.95748108 170.13371277 129.27748108 170.13371277 C127.78911509 168.22702802 126.43052082 166.32862 125.08998108 164.32121277 C124.35392639 163.24226746 123.6178717 162.16332214 122.85951233 161.05168152 C120.86206699 158.05252987 118.92965359 155.015345 117.00404358 151.96965027 C112.36213907 144.64636991 107.49060451 137.47825507 102.6231842 130.30363464 C101.58774475 128.76352722 101.58774475 128.76352722 100.53138733 127.19230652 C99.90562805 126.26732361 99.27986877 125.3423407 98.63514709 124.389328 C97.27748108 122.13371277 97.27748108 122.13371277 97.27748108 120.13371277 C96.46480774 120.13894958 95.6521344 120.1441864 94.81483459 120.14958191 C91.15655786 120.17028271 87.49829341 120.1833508 83.83998108 120.19621277 C82.56058655 120.20459167 81.28119202 120.21297058 79.96302795 120.22160339 C78.74808655 120.22482605 77.53314514 120.22804871 76.28138733 120.23136902 C75.1554718 120.23660583 74.02955627 120.24184265 72.86952209 120.24723816 C70.27748108 120.13371277 70.27748108 120.13371277 69.27748108 119.13371277 C69.18908437 116.75802757 69.16217803 114.41162603 69.17982483 112.03605652 C69.18123978 111.32719803 69.18265472 110.61833954 69.18411255 109.88800049 C69.18972665 107.61569564 69.20228145 105.34348802 69.21498108 103.07121277 C69.21999427 101.53410481 69.22455749 99.99699532 69.22865295 98.45988464 C69.23970065 94.68445635 69.25697467 90.90910106 69.27748108 87.13371277 C69.84187393 87.13006714 70.40626678 87.12642151 70.98776245 87.12266541 C76.9101802 87.08056088 82.83184299 87.01102374 88.75379944 86.92619324 C90.95814937 86.89812468 93.16259731 86.87684061 95.36708069 86.86271667 C98.55256319 86.84109086 101.73688462 86.79434072 104.92201233 86.74308777 C105.89330582 86.74185913 106.8645993 86.74063049 107.86532593 86.73936462 C114.17504476 86.60702433 119.22926817 85.37554742 125.07513428 82.98728943 C127.27748108 82.13371277 127.27748108 82.13371277 129.27748108 82.13371277 C129.27748108 81.47371277 129.27748108 80.81371277 129.27748108 80.13371277 C131.15248108 78.00871277 131.15248108 78.00871277 133.27748108 76.13371277 C133.93748108 76.13371277 134.59748108 76.13371277 135.27748108 76.13371277 C138.52664657 65.97751625 140.93587467 57.02814104 136.23841858 46.89152527 C132.00620751 39.65580958 126.40303458 35.35156611 118.27748108 33.13371277 C115.07735611 32.73884823 111.92110404 32.72577536 108.69960022 32.74894714 C107.77654587 32.74357437 106.85349152 32.7382016 105.90246582 32.73266602 C103.91097154 32.72293067 101.91943506 32.71993094 99.92791939 32.72302246 C96.76993902 32.72752363 93.61251218 32.7134351 90.45458984 32.69462585 C83.74972909 32.65794672 77.04492737 32.64415119 70.33998108 32.63371277 C62.56963653 32.62160878 54.79956354 32.59996466 47.02934074 32.55371094 C43.92900632 32.54019757 40.82902025 32.54430103 37.72866821 32.54911804 C35.81402654 32.53977188 33.89938865 32.52960167 31.98475647 32.51847839 C30.70563889 32.52770073 30.70563889 32.52770073 29.40068054 32.53710938 C21.30129669 32.45494383 14.38969093 30.40454773 7.77748108 25.63371277 C6.94216858 25.04590027 6.10685608 24.45808777 5.24623108 23.85246277 C3.27748108 22.13371277 3.27748108 22.13371277 2.27748108 19.13371277 C1.61748108 19.13371277 0.95748108 19.13371277 0.27748108 19.13371277 C-5.44787103 7.45061418 -5.44787103 7.45061418 -5.72251892 1.13371277 C-4.08967109 -0.49913506 -2.25368807 0.00422874 0 0 Z " fill="#80CFEA" transform="translate(142.72251892089844,113.86628723144531)"/>
<path d="M0 0 C2.97 0.495 2.97 0.495 6 1 C6 1.66 6 2.32 6 3 C6.825 3.061875 7.65 3.12375 8.5 3.1875 C14.89500295 4.67205426 21.11531778 8.70270606 25 14 C26.81724159 18.91669933 26.58462044 22.60736756 24.55859375 27.43359375 C22.24097357 31.77368832 19.72821904 35.90767143 17 40 C16.34 40 15.68 40 15 40 C14.62875 40.928125 14.62875 40.928125 14.25 41.875 C12.79371361 44.35068687 11.62187494 44.95125002 9 46 C9 46.66 9 47.32 9 48 C3.54213975 52.64141804 -2.19513389 55.85772733 -9 58 C-5.07086829 65.68257054 -0.55692091 72.80978291 4.26953125 79.94140625 C7.6727203 84.97376838 10.95609958 90.08240763 14.24487305 95.18994141 C14.8932312 96.19613525 14.8932312 96.19613525 15.5546875 97.22265625 C16.17102051 98.18389404 16.17102051 98.18389404 16.79980469 99.16455078 C17.58351863 100.36307833 18.38566202 101.54981 19.20800781 102.72216797 C22 106.70424989 22 106.70424989 22 110 C22.66 110 23.32 110 24 110 C25.7265625 112.484375 25.7265625 112.484375 27.625 115.75 C28.25664062 116.81734375 28.88828125 117.8846875 29.5390625 118.984375 C31 122 31 122 31 126 C16.6886927 126.74024003 3.42744108 125.47659213 -8.375 116.5859375 C-8.91125 116.06257813 -9.4475 115.53921875 -10 115 C-10 114.34 -10 113.68 -10 113 C-10.66 113 -11.32 113 -12 113 C-13.48836599 111.09331526 -14.84696026 109.19490723 -16.1875 107.1875 C-16.92355469 106.10855469 -17.65960938 105.02960938 -18.41796875 103.91796875 C-20.41541409 100.91881711 -22.34782749 97.88163223 -24.2734375 94.8359375 C-28.91534201 87.51265714 -33.78687657 80.3445423 -38.65429688 73.16992188 C-39.34458984 72.14318359 -40.03488281 71.11644531 -40.74609375 70.05859375 C-41.37185303 69.13361084 -41.9976123 68.20862793 -42.64233398 67.25561523 C-44 65 -44 65 -44 63 C-44.81267334 63.00523682 -45.62534668 63.01047363 -46.46264648 63.01586914 C-50.12092322 63.03656994 -53.77918767 63.04963803 -57.4375 63.0625 C-58.71689453 63.07087891 -59.99628906 63.07925781 -61.31445312 63.08789062 C-62.52939453 63.09111328 -63.74433594 63.09433594 -64.99609375 63.09765625 C-66.12200928 63.10289307 -67.2479248 63.10812988 -68.40795898 63.11352539 C-71 63 -71 63 -72 62 C-72.0883967 59.6243148 -72.11530305 57.27791326 -72.09765625 54.90234375 C-72.0962413 54.19348526 -72.09482635 53.48462677 -72.09336853 52.75428772 C-72.08775443 50.48198288 -72.07519963 48.20977525 -72.0625 45.9375 C-72.05748681 44.40039204 -72.05292359 42.86328255 -72.04882812 41.32617188 C-72.03778042 37.55074358 -72.02050641 33.77538829 -72 30 C-71.43560715 29.99635437 -70.87121429 29.99270874 -70.28971863 29.98895264 C-64.36730088 29.94684811 -58.44563808 29.87731098 -52.52368164 29.79248047 C-50.31933171 29.76441191 -48.11488377 29.74312784 -45.91040039 29.72900391 C-42.72491789 29.70737809 -39.54059646 29.66062796 -36.35546875 29.609375 C-35.38417526 29.60814636 -34.41288177 29.60691772 -33.41215515 29.60565186 C-27.10243632 29.47331156 -22.04821291 28.24183466 -16.2023468 25.85357666 C-14 25 -14 25 -12 25 C-12 24.34 -12 23.68 -12 23 C-9.20661341 20.5314258 -6.47891482 18.30847748 -3.34375 16.2890625 C-0.16063103 13.1802163 -0.30910881 11.12791721 -0.1875 6.75 C-0.13980469 5.48671875 -0.09210938 4.2234375 -0.04296875 2.921875 C-0.02878906 1.95765625 -0.01460938 0.9934375 0 0 Z " fill="#77B6E5" transform="translate(284,171)"/>
<path d="M0 0 C3.84324769 2.03039501 6.95120023 4.1180636 9 8 C10.39831125 12.93521619 10.39831125 12.93521619 10 16 C8.64574864 18.35342463 7.13351634 20.29379225 5.34765625 22.3359375 C3.01070993 25.22155817 4.02280921 29.44724805 4.04760742 33.06079102 C4.09701422 40.51564246 4.13047383 47.97048997 4.15543652 55.42546177 C4.17106427 59.93713281 4.19225988 64.44863255 4.22631836 68.96020508 C4.2590639 73.32620348 4.27688388 77.69203756 4.28463173 82.05814934 C4.29014552 83.71701586 4.30091217 85.37587406 4.31719017 87.03466988 C4.41491067 97.40779817 4.2742618 106.50545583 -1.5625 115.5625 C-2.18318359 116.55443359 -2.18318359 116.55443359 -2.81640625 117.56640625 C-3.20699219 118.03949219 -3.59757812 118.51257813 -4 119 C-4.66 119 -5.32 119 -6 119 C-6 119.66 -6 120.32 -6 121 C-12.34311577 126.40339492 -18.651665 129 -27 129 C-27.09297796 118.87246573 -27.16390546 108.74503422 -27.20724869 98.61715889 C-27.22805896 93.91356374 -27.25625566 89.21026217 -27.30175781 84.50683594 C-27.34545098 79.96157856 -27.36918636 75.41660228 -27.37950897 70.87115097 C-27.38685845 69.14331517 -27.40120964 67.4154935 -27.42292023 65.68777847 C-27.53353036 56.51462384 -27.6020723 48.25884614 -23 40 C-24.258125 39.7525 -25.51625 39.505 -26.8125 39.25 C-29.54976697 38.55236028 -30.84132656 38.13883926 -33 36.25 C-34.36352148 33.18207667 -34.54312509 31.32664118 -34 28 C-31.84670921 25.30838651 -30.12980326 23.47931047 -26.9375 22.125 C-25 22 -25 22 -22.9375 22.625 C-22.298125 22.74875 -21.65875 22.8725 -21 23 C-19.35405861 21.60411246 -19.35405861 21.60411246 -18 20 C-17.34 20 -16.68 20 -16 20 C-16.391875 18.824375 -16.78375 17.64875 -17.1875 16.4375 C-18.33816476 11.79374579 -17.47627858 9.15375762 -15 5 C-10.2461344 0.59397823 -6.50190047 -0.88387101 0 0 Z M-9 8 C-10.54163175 11.0832635 -10.29747535 13.60878099 -10 17 C-8.44202118 19.14782671 -8.44202118 19.14782671 -6 20 C-2.73332689 19.91833317 -1.25755628 19.18977831 1.375 17.25 C3.26140659 15.11610699 3.26140659 15.11610699 2.9375 12.4375 C1.93860859 9.84038233 1.22386568 8.64730791 -1 7 C-4.31215445 5.611032 -6.02560564 6.05125887 -9 8 Z M-15.3125 24.1875 C-17.39183141 26.03904577 -17.39183141 26.03904577 -17.25 29.6875 C-17.1675 30.780625 -17.085 31.87375 -17 33 C-15.22769249 32.2116391 -13.45720466 31.41918653 -11.6875 30.625 C-10.70136719 30.18414062 -9.71523437 29.74328125 -8.69921875 29.2890625 C-5.87254793 28.01757242 -5.87254793 28.01757242 -3 26 C-4.57477503 25.41396731 -6.16036205 24.85692803 -7.75 24.3125 C-8.63171875 23.99925781 -9.5134375 23.68601563 -10.421875 23.36328125 C-13.04301303 22.74132416 -13.04301303 22.74132416 -15.3125 24.1875 Z " fill="#6BA5E5" transform="translate(204,168)"/>
<path d="M0 0 C1.98 0.33 3.96 0.66 6 1 C6 1.66 6 2.32 6 3 C6.825 3.061875 7.65 3.12375 8.5 3.1875 C14.89500295 4.67205426 21.11531778 8.70270606 25 14 C26.81724159 18.91669933 26.58462044 22.60736756 24.55859375 27.43359375 C22.24097357 31.77368832 19.72821904 35.90767143 17 40 C16.34 40 15.68 40 15 40 C14.7525 40.61875 14.505 41.2375 14.25 41.875 C12.79371361 44.35068687 11.62187494 44.95125002 9 46 C9 46.66 9 47.32 9 48 C3.7707174 52.44703336 -3.73486561 58.34068517 -10.9921875 57.87109375 C-13.90999673 56.60519597 -14.99389423 54.67789684 -16.75 52.0625 C-17.67039062 50.71865234 -17.67039062 50.71865234 -18.609375 49.34765625 C-20 47 -20 47 -20 45 C-20.57621094 44.72929687 -21.15242188 44.45859375 -21.74609375 44.1796875 C-24.01962393 42.9897289 -25.98317563 41.62522282 -28.0625 40.125 C-32.31563889 37.24270753 -36.56237422 35.47920859 -41.421875 33.859375 C-43.99356419 33.00214527 -46.49245689 32.02827308 -49 31 C-49 30.67 -49 30.34 -49 30 C-48.33057373 29.9906543 -47.66114746 29.98130859 -46.97143555 29.97167969 C-43.87610201 29.91729608 -40.78217188 29.83378747 -37.6875 29.75 C-36.63498047 29.73582031 -35.58246094 29.72164062 -34.49804688 29.70703125 C-27.7953524 29.5007945 -22.36339936 28.41038208 -16.15551758 25.84863281 C-14 25 -14 25 -12 25 C-12 24.34 -12 23.68 -12 23 C-9.20661341 20.5314258 -6.47891482 18.30847748 -3.34375 16.2890625 C-0.16063103 13.1802163 -0.30910881 11.12791721 -0.1875 6.75 C-0.13980469 5.48671875 -0.09210938 4.2234375 -0.04296875 2.921875 C-0.02878906 1.95765625 -0.01460938 0.9934375 0 0 Z " fill="#68A7C9" transform="translate(284,171)"/>
<path d="M0 0 C4.01855707 5.21326323 4.67904864 9.49715677 4.45703125 16.05078125 C3.77638035 20.44301572 2.10459036 23.8137099 -1 27 C-3.171875 28.2109375 -3.171875 28.2109375 -5 29 C-4.566875 30.093125 -4.13375 31.18625 -3.6875 32.3125 C-3.44386719 32.92738281 -3.20023438 33.54226563 -2.94921875 34.17578125 C-1.89411225 36.20349621 -0.61340507 37.39482659 1 39 C2.16796875 40.97265625 2.16796875 40.97265625 3.1875 43.0625 C3.53167969 43.75472656 3.87585938 44.44695312 4.23046875 45.16015625 C5 47 5 47 5 49 C0.5252824 49.60560088 -3.54832698 49.85708991 -8 49 C-11.97022362 45.48504654 -14.06335455 40.99214016 -16.29296875 36.25 C-17.85971423 33.73587454 -17.85971423 33.73587454 -20.91796875 33.07421875 C-23.9453125 32.71614583 -26.97265625 32.35807292 -30 32 C-30 37.61 -30 43.22 -30 49 C-39.27734375 49.09765625 -39.27734375 49.09765625 -42 49 C-43 48 -43 48 -43.12025452 45.82969666 C-43.11803391 44.87261307 -43.11581329 43.91552948 -43.11352539 42.92944336 C-43.11344986 41.84839828 -43.11337433 40.76735321 -43.11329651 39.65354919 C-43.10813522 38.4775264 -43.10297394 37.3015036 -43.09765625 36.08984375 C-43.0962413 34.89267227 -43.09482635 33.69550079 -43.09336853 32.46205139 C-43.08774979 28.62050934 -43.07519411 24.77902457 -43.0625 20.9375 C-43.05748741 18.34049563 -43.05292409 15.74349035 -43.04882812 13.14648438 C-43.03777427 6.76430321 -43.02101792 0.3821557 -43 -6 C-42.12177582 -6.04514236 -41.24355164 -6.09028473 -40.3387146 -6.13679504 C-39.16523468 -6.19711411 -37.99175476 -6.25743317 -36.78271484 -6.31958008 C-34.94734161 -6.41307236 -34.94734161 -6.41307236 -33.07489014 -6.50845337 C-31.15345442 -6.6081744 -29.23212549 -6.71031672 -27.31134033 -6.8218689 C-17.60551546 -7.38411717 -7.16256945 -7.58389706 0 0 Z M-30 4 C-30 9.94 -30 15.88 -30 22 C-27.463125 22.0825 -24.92625 22.165 -22.3125 22.25 C-21.52270752 22.28641602 -20.73291504 22.32283203 -19.91918945 22.36035156 C-16.09739161 22.42027101 -14.36290217 22.23202728 -11.04296875 20.109375 C-8.6273106 17.61519641 -8.08315654 16.62367407 -7.625 13.1875 C-7.74477946 9.88236793 -7.74477946 9.88236793 -9.97265625 7.3515625 C-13.98137627 4.23769224 -16.88247652 4.22665338 -21.8125 4.1875 C-25.8653125 4.0946875 -25.8653125 4.0946875 -30 4 Z " fill="#38648B" transform="translate(164,328)"/>
<path d="M0 0 C5.50809574 3.2885888 8.11401618 7.41004046 10.5 13.375 C10.5 17.005 10.5 20.635 10.5 24.375 C0.27 24.375 -9.96 24.375 -20.5 24.375 C-17.22171131 29.18875192 -17.22171131 29.18875192 -14.5 30.375 C-8.49012294 30.92812143 -4.62792144 30.69306681 0.5 27.375 C3.60383385 28.31555571 5.96409829 30.3825058 8.5 32.375 C6.99692398 37.05123652 3.6346469 38.23384357 -0.5 40.375 C-5.40282391 42.82641196 -13.10530871 42.03096118 -18.5 41.375 C-23.72396564 39.55039751 -27.6138262 36.07839435 -30.5 31.375 C-33.83821148 24.3786651 -34.37733183 17.772329 -31.8125 10.3984375 C-29.33960356 5.38640632 -25.1995171 2.25067987 -20.5 -0.625 C-14.15622737 -2.73959088 -6.13848429 -2.82863234 0 0 Z M-19.5 11.375 C-19.83 12.695 -20.16 14.015 -20.5 15.375 C-14.23 15.375 -7.96 15.375 -1.5 15.375 C-2.92386299 10.59520784 -2.92386299 10.59520784 -5.1875 9.0625 C-10.590013 7.45634749 -15.09408794 7.74660183 -19.5 11.375 Z " fill="#39648B" transform="translate(204.5,335.625)"/>
<path d="M0 0 C5.18577296 3.12025322 8.69635727 8.17371657 10.1875 14.0078125 C10.71409907 17.99680045 10.55620578 20.58767686 9.5625 24.5625 C-0.0075 24.5625 -9.5775 24.5625 -19.4375 24.5625 C-18.91592453 28.52417325 -18.91592453 28.52417325 -16.6484375 29.79296875 C-11.60634358 31.5479025 -6.84071543 31.17481219 -2 29.0625 C-1.154375 28.5675 -0.30875 28.0725 0.5625 27.5625 C1.2225 27.5625 1.8825 27.5625 2.5625 27.5625 C2.5625 28.2225 2.5625 28.8825 2.5625 29.5625 C3.8825 30.2225 5.2025 30.8825 6.5625 31.5625 C6.5625 32.8825 6.5625 34.2025 6.5625 35.5625 C0.59621448 41.35832021 -5.44135167 41.98017977 -13.39648438 42.00732422 C-19.53348729 41.86194443 -22.86760452 40.56115855 -27.4375 36.5625 C-27.4375 35.9025 -27.4375 35.2425 -27.4375 34.5625 C-28.0975 34.5625 -28.7575 34.5625 -29.4375 34.5625 C-33.78388069 26.70408848 -34.80380425 19.60074691 -32.4375 10.875 C-32.1075 10.111875 -31.7775 9.34875 -31.4375 8.5625 C-30.7775 8.5625 -30.1175 8.5625 -29.4375 8.5625 C-29.4375 7.2425 -29.4375 5.9225 -29.4375 4.5625 C-20.23409883 -0.85126539 -10.59864459 -4.48089414 0 0 Z M-19.4375 11.5625 C-20.09257137 13.61901992 -20.09257137 13.61901992 -20.4375 15.5625 C-13.92505792 16.25758823 -7.8864191 16.88159709 -1.4375 15.5625 C-3.24162643 12.29789027 -4.27144693 10.67320205 -7.4375 8.5625 C-12.36730536 8.10603654 -15.55456094 8.36478548 -19.4375 11.5625 Z " fill="#356188" transform="translate(279.4375,335.4375)"/>
<path d="M0 0 C4.10586276 3.06601669 6.47073513 6.68564288 8.09765625 11.56640625 C8.72809442 19.12132922 9.12586063 26.45477661 4.09765625 32.56640625 C-3.18981958 39.13377577 -9.00904413 40.17965714 -18.609375 39.96875 C-24.30262752 39.62194663 -27.96106174 37.6671109 -31.90234375 33.56640625 C-32.71638672 32.74849609 -32.71638672 32.74849609 -33.546875 31.9140625 C-38.41657685 25.78333592 -37.48234865 17.96561163 -36.90234375 10.56640625 C-36.60608264 8.89275209 -36.28845978 7.22164137 -35.90234375 5.56640625 C-34.91234375 5.56640625 -33.92234375 5.56640625 -32.90234375 5.56640625 C-32.69609375 4.98890625 -32.48984375 4.41140625 -32.27734375 3.81640625 C-30.15611288 0.34530119 -26.9570483 -1.76492912 -23.08984375 -3.0234375 C-14.90168693 -4.5587169 -7.29055644 -4.16095172 0 0 Z M-22.90234375 10.56640625 C-25.71959608 14.79228475 -25.70192759 18.60265313 -24.90234375 23.56640625 C-22.71211457 26.39064913 -21.07217168 27.98149228 -17.90234375 29.56640625 C-12.57267167 29.90732666 -12.57267167 29.90732666 -7.90234375 27.56640625 C-7.90234375 26.90640625 -7.90234375 26.24640625 -7.90234375 25.56640625 C-6.91234375 25.23640625 -5.92234375 24.90640625 -4.90234375 24.56640625 C-3.17109254 21.10390382 -3.42419151 17.35232396 -3.90234375 13.56640625 C-5.97643323 10.08489891 -8.02503138 7.85884371 -11.90234375 6.56640625 C-16.67552595 5.8127459 -19.19001437 7.67903895 -22.90234375 10.56640625 Z " fill="#37638B" transform="translate(360.90234375,337.43359375)"/>
<path d="M0 0 C-0.66 2.97 -1.32 5.94 -2 9 C-4.97 9 -7.94 9 -11 9 C-11.99 11.31 -12.98 13.62 -14 16 C-10.04 16 -6.08 16 -2 16 C-2 18.97 -2 21.94 -2 25 C-5.63 25.33 -9.26 25.66 -13 26 C-12.99214478 27.18758911 -12.99214478 27.18758911 -12.98413086 28.39916992 C-12.96331063 31.99527184 -12.95032373 35.59136105 -12.9375 39.1875 C-12.92912109 40.43337891 -12.92074219 41.67925781 -12.91210938 42.96289062 C-12.90727539 44.7659668 -12.90727539 44.7659668 -12.90234375 46.60546875 C-12.89448853 48.26292114 -12.89448853 48.26292114 -12.88647461 49.95385742 C-13 53 -13 53 -14 58 C-17.63 58 -21.26 58 -25 58 C-25 47.11 -25 36.22 -25 25 C-26.98 25 -28.96 25 -31 25 C-32 24 -32 24 -32.09765625 22.15234375 C-32.06510417 20.1015625 -32.03255208 18.05078125 -32 16 C-29.69 16 -27.38 16 -25 16 C-25.03480469 15.41992188 -25.06960937 14.83984375 -25.10546875 14.2421875 C-25.28377441 9.0967957 -25.31729186 5.19539853 -22 1 C-14.77321105 -3.61371272 -7.65536885 -3.82768442 0 0 Z " fill="#3C678D" transform="translate(248,319)"/>
<path d="M0 0 C3.84324769 2.03039501 6.95120023 4.1180636 9 8 C10.39831125 12.93521619 10.39831125 12.93521619 10 16 C8.64574864 18.35342463 7.13351634 20.29379225 5.34765625 22.3359375 C3.79021478 23.9021513 3.79021478 23.9021513 4 26 C4 51.33333333 4 76.66666667 4 102 C3.67 102 3.34 102 3 102 C3 77.25 3 52.5 3 27 C-0.96 27.495 -0.96 27.495 -5 28 C-5 29.32 -5 30.64 -5 32 C-7.97 32.495 -7.97 32.495 -11 33 C-11.33 34.65 -11.66 36.3 -12 38 C-13.98 38.495 -13.98 38.495 -16 39 C-16.66 38.01 -17.32 37.02 -18 36 C-18.99 37.98 -19.98 39.96 -21 42 C-21.66 42 -22.32 42 -23 42 C-23 41.34 -23 40.68 -23 40 C-24.258125 39.7525 -25.51625 39.505 -26.8125 39.25 C-29.54976697 38.55236028 -30.84132656 38.13883926 -33 36.25 C-34.36352148 33.18207667 -34.54312509 31.32664118 -34 28 C-31.84670921 25.30838651 -30.12980326 23.47931047 -26.9375 22.125 C-25 22 -25 22 -22.9375 22.625 C-22.298125 22.74875 -21.65875 22.8725 -21 23 C-19.35405861 21.60411246 -19.35405861 21.60411246 -18 20 C-17.34 20 -16.68 20 -16 20 C-16.391875 18.824375 -16.78375 17.64875 -17.1875 16.4375 C-18.33816476 11.79374579 -17.47627858 9.15375762 -15 5 C-10.2461344 0.59397823 -6.50190047 -0.88387101 0 0 Z M-9 8 C-10.54163175 11.0832635 -10.29747535 13.60878099 -10 17 C-8.44202118 19.14782671 -8.44202118 19.14782671 -6 20 C-2.73332689 19.91833317 -1.25755628 19.18977831 1.375 17.25 C3.26140659 15.11610699 3.26140659 15.11610699 2.9375 12.4375 C1.93860859 9.84038233 1.22386568 8.64730791 -1 7 C-4.31215445 5.611032 -6.02560564 6.05125887 -9 8 Z M-15.3125 24.1875 C-17.39183141 26.03904577 -17.39183141 26.03904577 -17.25 29.6875 C-17.1675 30.780625 -17.085 31.87375 -17 33 C-15.22769249 32.2116391 -13.45720466 31.41918653 -11.6875 30.625 C-10.70136719 30.18414062 -9.71523437 29.74328125 -8.69921875 29.2890625 C-5.87254793 28.01757242 -5.87254793 28.01757242 -3 26 C-4.57477503 25.41396731 -6.16036205 24.85692803 -7.75 24.3125 C-8.63171875 23.99925781 -9.5134375 23.68601563 -10.421875 23.36328125 C-13.04301303 22.74132416 -13.04301303 22.74132416 -15.3125 24.1875 Z " fill="#90BFE9" transform="translate(204,168)"/>
<path d="M0 0 C0 3.63 0 7.26 0 11 C-7.75 15 -7.75 15 -10 15 C-10.268125 15.53625 -10.53625 16.0725 -10.8125 16.625 C-12 19 -12 19 -13.625 21.5 C-15.88337292 27.24858562 -16.34597605 33.57690041 -14.05078125 39.4140625 C-10.63018566 45.17620145 -6.37864313 48.81303664 0 51 C0 54.3 0 57.6 0 61 C-4.13640367 62.37880122 -5.89558704 60.98159779 -9.703125 59.18359375 C-12.68843464 57.64524542 -15.33539843 56.04969352 -18 54 C-18 53.34 -18 52.68 -18 52 C-18.66 52 -19.32 52 -20 52 C-25.86047149 42.33693251 -28.53120888 33.79524519 -26.3125 22.5 C-22.74645846 12.99055589 -18.09453604 6.45505135 -8.74609375 1.90234375 C-5.74045698 0.71226657 -3.24544602 0 0 0 Z " fill="#75A9E1" transform="translate(173,172)"/>
<path d="M0 0 C3.63 0 7.26 0 11 0 C11.66 0.99 12.32 1.98 13 3 C14.2684375 2.2575 14.2684375 2.2575 15.5625 1.5 C19.33796832 -0.14747708 21.92817548 -0.24430947 26 0 C26 3.63 26 7.26 26 11 C24.5975 11.2475 23.195 11.495 21.75 11.75 C17.60306613 12.48181186 15.66452334 13.71889275 13 17 C12.36171531 19.88873888 12.36171531 19.88873888 12.390625 23.078125 C12.35839844 24.23828125 12.32617188 25.3984375 12.29296875 26.59375 C12.27169922 28.40359375 12.27169922 28.40359375 12.25 30.25 C12.22035156 31.47203125 12.19070313 32.6940625 12.16015625 33.953125 C12.08948587 36.96839445 12.04247603 39.98420161 12 43 C8.04 43 4.08 43 0 43 C0 28.81 0 14.62 0 0 Z " fill="#376289" transform="translate(296,334)"/>
<path d="M0 0 C1.12970215 0.00012085 1.12970215 0.00012085 2.28222656 0.00024414 C8.66545407 0.06472804 14.75433072 0.85884054 21 2.1875 C21.88816406 2.32929688 22.77632812 2.47109375 23.69140625 2.6171875 C27.12918238 3.46645199 28.11721077 5.26593051 30 8.1875 C32.47854317 13.38063807 31.90442303 17.68763019 31 23.1875 C30.34 22.5275 29.68 21.8675 29 21.1875 C26.69 22.1775 24.38 23.1675 22 24.1875 C22 20.8875 22 17.5875 22 14.1875 C20.68 13.8575 19.36 13.5275 18 13.1875 C17.01 12.5275 16.02 11.8675 15 11.1875 C12.97750421 10.73473252 12.97750421 10.73473252 10.76953125 10.5546875 C10.04612549 10.47847168 9.32271973 10.40225586 8.57739258 10.32373047 C7.66497803 10.23752441 6.75256348 10.15131836 5.8125 10.0625 C2.904375 9.77375 -0.00375 9.485 -3 9.1875 C-3 15.1275 -3 21.0675 -3 27.1875 C-3.33 27.1875 -3.66 27.1875 -4 27.1875 C-4.12117187 26.33285156 -4.24234375 25.47820312 -4.3671875 24.59765625 C-4.61855469 22.94056641 -4.61855469 22.94056641 -4.875 21.25 C-5.11863281 19.59677734 -5.11863281 19.59677734 -5.3671875 17.91015625 C-5.68042969 16.56244141 -5.68042969 16.56244141 -6 15.1875 C-6.66 14.8575 -7.32 14.5275 -8 14.1875 C-8 13.5275 -8 12.8675 -8 12.1875 C-9.32 12.1875 -10.64 12.1875 -12 12.1875 C-13.26026798 9.66696405 -12.91874445 8.3332902 -12.5625 5.5625 C-12.46066406 4.74523437 -12.35882813 3.92796875 -12.25390625 3.0859375 C-12.17011719 2.45945312 -12.08632812 1.83296875 -12 1.1875 C-8.06719427 -0.0927102 -4.09038419 -0.0040633 0 0 Z " fill="#305C84" transform="translate(136,322.8125)"/>
<path d="M0 0 C2.5 1.5 2.5 1.5 4 4 C4.791013 8.02098277 4.62153384 10.96411027 2.5 14.5 C-0.49418709 16.29651226 -2.56898994 16.51498599 -6 16.62890625 C-8 16 -8 16 -9.64941406 13.49121094 C-11.84026591 10.66397337 -11.84026591 10.66397337 -15.48339844 10.43237305 C-16.85897802 10.4331597 -18.23472587 10.46112647 -19.609375 10.51171875 C-20.69958954 10.52233086 -20.69958954 10.52233086 -21.81182861 10.53315735 C-24.12561457 10.5610727 -26.43694998 10.62379617 -28.75 10.6875 C-30.32157954 10.71258701 -31.89319716 10.73539949 -33.46484375 10.75585938 C-37.3108352 10.81088868 -41.15500265 10.89713334 -45 11 C-44.67 9.35 -44.34 7.7 -44 6 C-33.44 6 -22.88 6 -12 6 C-11.34 4.35 -10.68 2.7 -10 1 C-6.79158965 -0.60420518 -3.4806013 -0.47462745 0 0 Z " fill="#86BEE5" transform="translate(260,173)"/>
<path d="M0 0 C0 3.63 0 7.26 0 11 C-7.75 15 -7.75 15 -10 15 C-10.268125 15.53625 -10.53625 16.0725 -10.8125 16.625 C-12.20833333 19.41666667 -13.60416667 22.20833333 -15 25 C-15.33 25 -15.66 25 -16 25 C-16 23.35 -16 21.7 -16 20 C-16.66 20 -17.32 20 -18 20 C-17.67 21.65 -17.34 23.3 -17 25 C-18.65 24.67 -20.3 24.34 -22 24 C-22.33 22.68 -22.66 21.36 -23 20 C-24.23402862 24.77092956 -24.11265112 29.42469446 -24.0625 34.3125 C-24.05798828 35.14845703 -24.05347656 35.98441406 -24.04882812 36.84570312 C-24.03710548 38.89716649 -24.01917203 40.94859273 -24 43 C-27.39505835 39.60494165 -27.0696486 35.16656142 -27.1875 30.5625 C-27.04681666 22.13556807 -23.99868877 13.95290226 -17.953125 7.9765625 C-12.66530968 3.65514101 -7.03935866 0 0 0 Z " fill="#8AC5E4" transform="translate(173,172)"/>
<path d="M0 0 C4.32593748 3.6217151 6.36201379 6.24006092 6.96484375 12.08203125 C6.37972804 16.65582311 2.84884703 20.08865297 -0.3125 23.25 C-1.95480364 23.3745486 -3.60302276 23.42568524 -5.25 23.4375 C-6.14589844 23.45167969 -7.04179687 23.46585938 -7.96484375 23.48046875 C-10.3125 23.25 -10.3125 23.25 -12.3125 21.25 C-12.3125 20.26 -12.3125 19.27 -12.3125 18.25 C-9.0125 17.59 -5.7125 16.93 -2.3125 16.25 C-1.37463918 11.19990405 -1.37463918 11.19990405 -2.3125 6.25 C-5.97555234 5.50073929 -8.73605152 5.0119986 -12.3125 6.25 C-12.3125 6.91 -12.3125 7.57 -12.3125 8.25 C-12.9725 8.25 -13.6325 8.25 -14.3125 8.25 C-14.27125 9.178125 -14.23 10.10625 -14.1875 11.0625 C-14.3125 14.25 -14.3125 14.25 -16.3125 17.25 C-15.6525 17.25 -14.9925 17.25 -14.3125 17.25 C-14.3125 17.91 -14.3125 18.57 -14.3125 19.25 C-15.3025 19.25 -16.2925 19.25 -17.3125 19.25 C-19.43974724 14.24471237 -19.61724444 10.43689389 -18.3125 5.25 C-17.04037609 2.46344286 -16.03243268 0.80994764 -13.625 -1.0625 C-8.44478177 -2.60256488 -4.69378576 -2.47973587 0 0 Z " fill="#89B8E0" transform="translate(207.3125,169.75)"/>
<path d="M0 0 C2.375 1.625 2.375 1.625 4 4 C4.70930433 8.33463758 4.492403 10.25345351 2.0625 13.9375 C-1.59724201 16.40222421 -3.54305001 16.37299541 -7.81640625 15.98046875 C-10.37278446 16.00333439 -11.81809492 16.71856368 -14 18 C-14 18.66 -14 19.32 -14 20 C-15.828125 21.54296875 -15.828125 21.54296875 -18.25 23.1875 C-19.43335938 24.01314453 -19.43335938 24.01314453 -20.640625 24.85546875 C-23 26 -23 26 -25.296875 25.67578125 C-26.13992187 25.34126953 -26.13992187 25.34126953 -27 25 C-27 23.68 -27 22.36 -27 21 C-24.8828125 19.078125 -24.8828125 19.078125 -22.125 17.25 C-21.22007812 16.63640625 -20.31515625 16.0228125 -19.3828125 15.390625 C-17 14 -17 14 -15 14 C-15 13.34 -15 12.68 -15 12 C-14.34 11.67 -13.68 11.34 -13 11 C-12.49954532 8.97499747 -12.49954532 8.97499747 -12.1875 6.625 C-11.5031353 3.2933641 -11.29161975 2.27541865 -8.75 -0.125 C-5.30535842 -1.22102232 -3.44057729 -1.09805658 0 0 Z " fill="#78C7ED" transform="translate(242,152)"/>
<path d="M0 0 C15.89904 -0.02339156 31.79807534 -0.04100988 47.6971283 -0.05181217 C55.07982967 -0.05696185 62.46252034 -0.06397918 69.84521484 -0.07543945 C76.28222282 -0.08542693 82.71922304 -0.09186309 89.15623856 -0.09408849 C92.56252249 -0.09538871 95.96878423 -0.09843078 99.37506104 -0.10573006 C103.18364778 -0.11299753 106.99218867 -0.11398852 110.80078125 -0.11352539 C111.92215988 -0.11712067 113.04353851 -0.12071594 114.19889832 -0.12442017 C119.89714371 -0.11693103 125.36469351 0.14204573 131 1 C131 1.33 131 1.66 131 2 C129.96875 2.12375 128.9375 2.2475 127.875 2.375 C124.37883154 2.93889814 121.31602373 3.78682059 118 5 C117.505 4.01 117.505 4.01 117 3 C78.72 2.67 40.44 2.34 1 2 C1 3.98 1 5.96 1 8 C-1.10865385 4.52692308 -1.10865385 4.52692308 -0.55859375 1.859375 C-0.37425781 1.24578125 -0.18992188 0.6321875 0 0 Z " fill="#ADDCEA" transform="translate(138,114)"/>
<path d="M0 0 C-4 2 -4 2 -14 0 C-20.93 0 -27.86 0 -35 0 C-35 16.83 -35 33.66 -35 51 C-32.36 51 -29.72 51 -27 51 C-27 46.05 -27 41.1 -27 36 C-26.34 36 -25.68 36 -25 36 C-25 41.61 -25 47.22 -25 53 C-34.27734375 53.09765625 -34.27734375 53.09765625 -37 53 C-38 52 -38 52 -38.12025452 49.82969666 C-38.11803391 48.87261307 -38.11581329 47.91552948 -38.11352539 46.92944336 C-38.11344986 45.84839828 -38.11337433 44.76735321 -38.11329651 43.65354919 C-38.10813522 42.4775264 -38.10297394 41.3015036 -38.09765625 40.08984375 C-38.0962413 38.89267227 -38.09482635 37.69550079 -38.09336853 36.46205139 C-38.08774979 32.62050934 -38.07519411 28.77902457 -38.0625 24.9375 C-38.05748741 22.34049563 -38.05292409 19.74349035 -38.04882812 17.14648438 C-38.03777427 10.76430321 -38.02101792 4.3821557 -38 -2 C-37.12177582 -2.04514236 -36.24355164 -2.09028473 -35.3387146 -2.13679504 C-34.16523468 -2.19711411 -32.99175476 -2.25743317 -31.78271484 -2.31958008 C-29.94734161 -2.41307236 -29.94734161 -2.41307236 -28.07489014 -2.50845337 C-26.15345442 -2.6081744 -24.23212549 -2.71031672 -22.31134033 -2.8218689 C-14.28107899 -3.28705353 -7.52361792 -3.00000697 0 0 Z " fill="#5B7B99" transform="translate(159,324)"/>
<path d="M0 0 C-2.89234315 0.82638376 -4.88742431 1 -8 1 C-8.66 2.98 -9.32 4.96 -10 7 C-11.85625 6.938125 -11.85625 6.938125 -13.75 6.875 C-17.00644202 6.88650686 -19.33396004 6.94920003 -22 9 C-22.66 10.32 -23.32 11.64 -24 13 C-21.03 13 -18.06 13 -15 13 C-15 13.33 -15 13.66 -15 14 C-18.3 14 -21.6 14 -25 14 C-25.66 12.35 -26.32 10.7 -27 9 C-28.32 9 -29.64 9 -31 9 C-31 8.01 -31 7.02 -31 6 C-30.34 6 -29.68 6 -29 6 C-29.33 4.35 -29.66 2.7 -30 1 C-21.32271813 -6.47210383 -9.5099392 -5.96702068 0 0 Z " fill="#3A658B" transform="translate(283,338)"/>
<path d="M0 0 C14.7547725 -0.80971312 14.7547725 -0.80971312 21 4 C25.15394909 7.8876703 27.80816443 12.1569968 28.1953125 17.89453125 C28.17210937 18.85746094 28.14890625 19.82039063 28.125 20.8125 C28.10695312 21.78832031 28.08890625 22.76414062 28.0703125 23.76953125 C28.04710937 24.50558594 28.02390625 25.24164063 28 26 C27.34 26 26.68 26 26 26 C25.34 22.7 24.68 19.4 24 16 C21.69 15.67 19.38 15.34 17 15 C17 15.99 17 16.98 17 18 C10.07 18 3.14 18 -4 18 C-3.67 17.34 -3.34 16.68 -3 16 C2.94 16 8.88 16 15 16 C14.67 14.68 14.34 13.36 14 12 C9.55491427 10.57757257 4.92067002 10.21203281 0.5625 12 C0.046875 12.33 -0.46875 12.66 -1 13 C-1 12.01 -1 11.02 -1 10 C2.01490557 8.99503148 4.04181692 8.89664697 7.1875 8.9375 C8.08855469 8.94652344 8.98960937 8.95554687 9.91796875 8.96484375 C10.60503906 8.97644531 11.29210937 8.98804688 12 9 C11.67 7.68 11.34 6.36 11 5 C11.99 4.34 12.98 3.68 14 3 C7.07 2.505 7.07 2.505 0 2 C0 1.34 0 0.68 0 0 Z " fill="#547898" transform="translate(187,334)"/>
<path d="M0 0 C2.97 0.33 5.94 0.66 9 1 C10 4 10 4 10 12 C0.1 12 -9.8 12 -20 12 C-20 11.67 -20 11.34 -20 11 C-17.69 10.34 -15.38 9.68 -13 9 C-13.33 8.34 -13.66 7.68 -14 7 C-13.67 6.34 -13.34 5.68 -13 5 C-15.31 5 -17.62 5 -20 5 C-20 4.67 -20 4.34 -20 4 C-13.07 4 -6.14 4 1 4 C0.67 2.68 0.34 1.36 0 0 Z " fill="#2F5B83" transform="translate(203,348)"/>
<path d="M0 0 C0 0.66 0 1.32 0 2 C1.32 2.66 2.64 3.32 4 4 C4 5.32 4 6.64 4 8 C-0.26190508 12.14013637 -4.2872006 14.07959424 -10.1875 14.25 C-14 14 -14 14 -16 12 C-18.31648799 10.96157435 -20.64903024 9.9578025 -23 9 C-22.01 8.01 -21.02 7.02 -20 6 C-19.34 6.33 -18.68 6.66 -18 7 C-18.33 5.68 -18.66 4.36 -19 3 C-18.27554687 3.03480469 -17.55109375 3.06960938 -16.8046875 3.10546875 C-10.55202488 3.2805433 -5.49660335 0 0 0 Z " fill="#305E89" transform="translate(282,363)"/>
<path d="M0 0 C0 3.63 0 7.26 0 11 C-1.381875 11.2475 -2.76375 11.495 -4.1875 11.75 C-8.33771428 12.65335894 -10.89992311 13.99992559 -14 17 C-14.625 15.125 -14.625 15.125 -15 13 C-14.34 12.34 -13.68 11.68 -13 11 C-13.495 9.9171875 -13.495 9.9171875 -14 8.8125 C-15.00603529 5.98302573 -15.16977402 3.97104534 -15 1 C-14.34 1.66 -13.68 2.32 -13 3 C-11.7315625 2.2575 -11.7315625 2.2575 -10.4375 1.5 C-6.66203168 -0.14747708 -4.07182452 -0.24430947 0 0 Z " fill="#4A7193" transform="translate(322,334)"/>
<path d="M0 0 C0.33 0 0.66 0 1 0 C1.41271158 4.20965814 1.42484735 6.35587659 -0.9375 9.9375 C-4.59724201 12.40222421 -6.54305001 12.37299541 -10.81640625 11.98046875 C-13.37278446 12.00333439 -14.81809492 12.71856368 -17 14 C-17 14.66 -17 15.32 -17 16 C-18.828125 17.54296875 -18.828125 17.54296875 -21.25 19.1875 C-22.43335938 20.01314453 -22.43335938 20.01314453 -23.640625 20.85546875 C-26 22 -26 22 -28.296875 21.67578125 C-29.13992187 21.34126953 -29.13992187 21.34126953 -30 21 C-30 19.68 -30 18.36 -30 17 C-27.8828125 15.078125 -27.8828125 15.078125 -25.125 13.25 C-24.22007812 12.63640625 -23.31515625 12.0228125 -22.3828125 11.390625 C-20 10 -20 10 -18 10 C-18 9.34 -18 8.68 -18 8 C-17.34 7.67 -16.68 7.34 -16 7 C-15.34227572 3.97065509 -15.34227572 3.97065509 -15 1 C-14.67 1 -14.34 1 -14 1 C-13.67 3.97 -13.34 6.94 -13 10 C-10.03 10 -7.06 10 -4 10 C-3.67 7.36 -3.34 4.72 -3 2 C-2.34 2 -1.68 2 -1 2 C-0.67 1.34 -0.34 0.68 0 0 Z " fill="#9ACCE7" transform="translate(245,156)"/>
<path d="M0 0 C0 3.63 0 7.26 0 11 C-7.75 15 -7.75 15 -10 15 C-10.33 15.66 -10.66 16.32 -11 17 C-11 15.02 -11 13.04 -11 11 C-11.66 11 -12.32 11 -13 11 C-13.33 10.34 -13.66 9.68 -14 9 C-16.02463255 8.34786708 -16.02463255 8.34786708 -18 8 C-6.67924528 0 -6.67924528 0 0 0 Z " fill="#89D0E7" transform="translate(173,172)"/>
<path d="M0 0 C0.79735565 0.1429248 1.5947113 0.28584961 2.41622925 0.43310547 C11.6477962 1.93570697 20.53912152 2.2455213 29.86978531 2.15032959 C32.45561247 2.12426623 35.04122875 2.11163658 37.62716675 2.10205078 C44.0496315 2.07562925 50.47189372 2.02737555 56.89422607 1.97924805 C62.33642414 1.9392788 67.77854306 1.90821043 73.2208519 1.88812256 C75.72853034 1.87546333 78.23586634 1.85045676 80.74343872 1.82470703 C92.27152415 1.75254575 103.55323028 2.66035084 115 4 C115 5.32 115 6.64 115 8 C114.39187753 7.78790138 113.78375505 7.57580276 113.15720463 7.35727692 C107.02047561 5.3476447 101.62868134 4.5685658 95.19506836 4.61523438 C94.27172195 4.6098616 93.34837555 4.60448883 92.39704895 4.59895325 C90.41104652 4.58924031 88.42500196 4.58621126 86.4389782 4.58930969 C83.28923957 4.5938225 80.14005249 4.57969093 76.9903717 4.56091309 C69.17262475 4.5180873 61.35489198 4.50689809 53.53704834 4.49468994 C46.9159066 4.48313264 40.29501839 4.459495 33.67398262 4.41999817 C30.58250678 4.40649102 27.49138052 4.41058641 24.39988708 4.41540527 C22.49176598 4.40605972 20.58364868 4.39588966 18.67553711 4.38476562 C17.82593414 4.39091385 16.97633118 4.39706207 16.10098267 4.40339661 C10.26239343 4.34395358 5.42464352 3.14082992 0 1 C0 0.67 0 0.34 0 0 Z " fill="#AADAEB" transform="translate(156,142)"/>
<path d="M0 0 C0.66 0.99 1.32 1.98 2 3 C1.67 3.66 1.34 4.32 1 5 C2.65 5.33 4.3 5.66 6 6 C5.67 4.35 5.34 2.7 5 1 C5.66 1 6.32 1 7 1 C7.01417969 2.12277344 7.02835938 3.24554688 7.04296875 4.40234375 C7.27386314 12.9875911 7.54037591 19.92867876 13 27 C11.68 27.33 10.36 27.66 9 28 C7 25 7 25 7 21 C6.34 20.67 5.68 20.34 5 20 C5 18.68 5 17.36 5 16 C4.67 15.01 4.34 14.02 4 13 C3.34 13 2.68 13 2 13 C2.0928125 14.175625 2.0928125 14.175625 2.1875 15.375 C2.125625 16.24125 2.06375 17.1075 2 18 C1.01 18.66 0.02 19.32 -1 20 C-2.42765939 12.86170305 -2.73739157 6.84347892 0 0 Z " fill="#70B0E3" transform="translate(150,191)"/>
<path d="M0 0 C0.99 0.33 1.98 0.66 3 1 C4.47542994 5.42628982 4.17501077 9.78319694 3.8125 14.375 C3 16 3 16 0.4375 17.25 C-0.366875 17.4975 -1.17125 17.745 -2 18 C-2 17.34 -2 16.68 -2 16 C-3.65 15.67 -5.3 15.34 -7 15 C-7.43695709 9.66912345 -7.43695709 9.66912345 -7 7 C-4.59140121 4.97170628 -3.16955691 4 0 4 C0 2.68 0 1.36 0 0 Z " fill="#2F5C86" transform="translate(365,345)"/>
<path d="M0 0 C0.495 1.485 0.495 1.485 1 3 C-1.90554843 5.90554843 -4.05308909 5.96550348 -8.11621094 6.11352539 C-9.31020508 6.10828857 -10.50419922 6.10305176 -11.734375 6.09765625 C-13.02988281 6.09443359 -14.32539063 6.09121094 -15.66015625 6.08789062 C-17.02343817 6.07953598 -18.38671942 6.07107104 -19.75 6.0625 C-21.12890465 6.05748168 -22.50781104 6.05291935 -23.88671875 6.04882812 C-27.25785659 6.03704093 -30.62890628 6.02058635 -34 6 C-34 4.68 -34 3.36 -34 2 C-23.11 2 -12.22 2 -1 2 C-0.67 1.34 -0.34 0.68 0 0 Z " fill="#7FBBE1" transform="translate(249,178)"/>
<path d="M0 0 C0.99 0 1.98 0 3 0 C3.33 2.97 3.66 5.94 4 9 C4.66 9 5.32 9 6 9 C6.33 8.34 6.66 7.68 7 7 C9.0625 6.375 9.0625 6.375 11 6 C11.33 4.02 11.66 2.04 12 0 C12.33 0 12.66 0 13 0 C13.05437607 1.58294782 13.09296271 3.16644256 13.125 4.75 C13.14820313 5.63171875 13.17140625 6.5134375 13.1953125 7.421875 C12.9887466 10.14854489 12.49071432 11.72251979 11 14 C8.875 14.75 8.875 14.75 7 15 C7 15.66 7 16.32 7 17 C5.68 17.33 4.36 17.66 3 18 C2.87625 17.360625 2.7525 16.72125 2.625 16.0625 C2.41875 15.381875 2.2125 14.70125 2 14 C1.34 13.67 0.68 13.34 0 13 C0 12.34 0 11.68 0 11 C-0.66 10.67 -1.32 10.34 -2 10 C-1.34 9.01 -0.68 8.02 0 7 C0.07905064 4.66800612 0.08798769 2.33167378 0 0 Z " fill="#416B93" transform="translate(155,337)"/>
<path d="M0 0 C2.90894304 2.58572714 3.62559557 5.58257637 3.8828125 9.39453125 C3.85960937 10.35746094 3.83640625 11.32039063 3.8125 12.3125 C3.79445312 13.28832031 3.77640625 14.26414062 3.7578125 15.26953125 C3.73460937 16.00558594 3.71140625 16.74164063 3.6875 17.5 C3.0275 17.5 2.3675 17.5 1.6875 17.5 C1.0275 14.2 0.3675 10.9 -0.3125 7.5 C-2.6225 7.17 -4.9325 6.84 -7.3125 6.5 C-7.3125 7.49 -7.3125 8.48 -7.3125 9.5 C-14.2425 9.5 -21.1725 9.5 -28.3125 9.5 C-27.9825 8.84 -27.6525 8.18 -27.3125 7.5 C-21.3725 7.5 -15.4325 7.5 -9.3125 7.5 C-9.3125 5.85 -9.3125 4.2 -9.3125 2.5 C-3.01061321 -0.6509434 -3.01061321 -0.6509434 0 0 Z " fill="#587B9F" transform="translate(211.3125,342.5)"/>
<path d="M0 0 C0.99 0.33 1.98 0.66 3 1 C3 2.98 3 4.96 3 7 C2.34 6.01 1.68 5.02 1 4 C0.79375 4.804375 0.5875 5.60875 0.375 6.4375 C-1 9 -1 9 -3.9375 10 C-7 10 -7 10 -8.9375 8.875 C-10 7 -10 7 -9.75 4.375 C-9 2 -9 2 -8 1 C-5.66666667 1 -3.33333333 1 -1 1 C-0.67 0.67 -0.34 0.34 0 0 Z " fill="#80CBEE" transform="translate(184,194)"/>
<path d="M0 0 C1.38611291 2.77222583 0.61977541 4.91915286 0.19140625 7.890625 C-0.06483166 10.71447132 0.38058491 13.24704405 1 16 C1.99 16 2.98 16 4 16 C4 15.34 4 14.68 4 14 C3.34 14 2.68 14 2 14 C2.66 11.03 3.32 8.06 4 5 C4.33 5 4.66 5 5 5 C5.103125 6.093125 5.20625 7.18625 5.3125 8.3125 C5.97307727 11.85559629 6.2027092 12.93243723 9 15 C8.01 15 7.02 15 6 15 C6.66 16.65 7.32 18.3 8 20 C7.0925 19.79375 6.185 19.5875 5.25 19.375 C1.88972103 18.9872755 0.75924185 19.19588033 -2 21 C-2.33 20.34 -2.66 19.68 -3 19 C-2.01 19 -1.02 19 0 19 C-0.99 17.68 -1.98 16.36 -3 15 C-2.34 15 -1.68 15 -1 15 C-1.391875 13.824375 -1.78375 12.64875 -2.1875 11.4375 C-3.41819282 6.67599192 -2.29798544 4.24243466 0 0 Z " fill="#98C1E9" transform="translate(189,173)"/>
<path d="M0 0 C7.59 0 15.18 0 23 0 C23.33 0.66 23.66 1.32 24 2 C13.605 2.495 13.605 2.495 3 3 C2.23085666 6.07657338 1.83034891 8.44405157 1.68359375 11.546875 C1.64169922 12.39121094 1.59980469 13.23554688 1.55664062 14.10546875 C1.51732422 14.97816406 1.47800781 15.85085937 1.4375 16.75 C1.39431641 17.63816406 1.35113281 18.52632812 1.30664062 19.44140625 C1.20086385 21.62745963 1.09877454 23.81362089 1 26 C0.67 26 0.34 26 0 26 C0 17.42 0 8.84 0 0 Z " fill="#A1CBE3" transform="translate(212,201)"/>
<path d="M0 0 C3.50593832 1.16864611 4.08859743 1.92513499 6 5 C6.72693904 6.97888961 7.39816251 8.97954558 8 11 C8.33 11.99 8.66 12.98 9 14 C8.34 14 7.68 14 7 14 C7.04640625 15.03640625 7.0928125 16.0728125 7.140625 17.140625 C7.17815275 18.51038779 7.21455184 19.88018182 7.25 21.25 C7.28351563 21.93191406 7.31703125 22.61382812 7.3515625 23.31640625 C7.4215705 26.92181813 7.29151719 28.64068812 4.984375 31.484375 C4.00210937 32.23460937 4.00210937 32.23460937 3 33 C2.34 32.67 1.68 32.34 1 32 C1.474375 30.824375 1.94875 29.64875 2.4375 28.4375 C5.75144941 19.42671375 5.10590632 11.65151297 1.375 2.875 C0.92125 1.92625 0.4675 0.9775 0 0 Z " fill="#A2DDEC" transform="translate(277,156)"/>
<path d="M0 0 C0.99 0 1.98 0 3 0 C3.33 1.65 3.66 3.3 4 5 C2.68 5 1.36 5 0 5 C-0.33 22.49 -0.66 39.98 -1 58 C-1.33 58 -1.66 58 -2 58 C-2.05072207 50.54356797 -2.08574293 43.08718046 -2.10986328 35.63061523 C-2.11991901 33.09413999 -2.13356535 30.55767632 -2.15087891 28.02124023 C-2.17514563 24.37480814 -2.1864875 20.72852937 -2.1953125 17.08203125 C-2.20563507 15.94852737 -2.21595764 14.8150235 -2.22659302 13.64717102 C-2.22674408 12.58644882 -2.22689514 11.52572662 -2.22705078 10.43286133 C-2.231492 9.50242508 -2.23593323 8.57198883 -2.24050903 7.61335754 C-1.97774771 4.75820784 -1.18517899 2.5973739 0 0 Z " fill="#70A4DD" transform="translate(180,210)"/>
<path d="M0 0 C2.50286528 2.23470114 2.46722566 4.31059508 2.75 7.5625 C1.76 7.5625 0.77 7.5625 -0.25 7.5625 C-0.25 8.2225 -0.25 8.8825 -0.25 9.5625 C-1.9 9.5625 -3.55 9.5625 -5.25 9.5625 C-5.91 7.2525 -6.57 4.9425 -7.25 2.5625 C-2.91666667 -0.56712963 -2.91666667 -0.56712963 0 0 Z " fill="#2A5883" transform="translate(207.25,363.4375)"/>
<path d="M0 0 C2.69082872 0.17635452 5.32851446 0.61835921 8 1 C8 1.66 8 2.32 8 3 C9.65 3 11.3 3 13 3 C12.401875 3.2475 11.80375 3.495 11.1875 3.75 C8.71352479 5.16370012 7.56629745 6.65055383 6 9 C4.35 8.67 2.7 8.34 1 8 C0.67 7.01 0.34 6.02 0 5 C-0.99 5.495 -0.99 5.495 -2 6 C-2.66 5.34 -3.32 4.68 -4 4 C-3.34 4 -2.68 4 -2 4 C-1.67 3.01 -1.34 2.02 -1 1 C-0.67 0.67 -0.34 0.34 0 0 Z " fill="#2B5984" transform="translate(181,365)"/>
<path d="M0 0 C1.32 0.66 2.64 1.32 4 2 C2.49692398 6.67623652 -0.8653531 7.85884357 -5 10 C-8.21451269 11.60725635 -11.43612536 11.05748185 -15 11 C-14.67 10.34 -14.34 9.68 -14 9 C-12.35 9 -10.7 9 -9 9 C-8.67 7.68 -8.34 6.36 -8 5 C-5.69 5 -3.38 5 -1 5 C-0.67 3.35 -0.34 1.7 0 0 Z " fill="#3C6184" transform="translate(283,366)"/>
<path d="M0 0 C4.62 0 9.24 0 14 0 C14.33 0.66 14.66 1.32 15 2 C14.34 2.66 13.68 3.32 13 4 C12.67 4.99 12.34 5.98 12 7 C9.69 7 7.38 7 5 7 C5 5.68 5 4.36 5 3 C4.01 3 3.02 3 2 3 C2 2.34 2 1.68 2 1 C1.34 0.67 0.68 0.34 0 0 Z " fill="#295882" transform="translate(187,336)"/>
<path d="M0 0 C0 0.99 0 1.98 0 3 C-1.32 3.33 -2.64 3.66 -4 4 C-1.01353231 5.99097846 1.59687262 6.94124926 5 8 C4.67 8.66 4.34 9.32 4 10 C2.02 10 0.04 10 -2 10 C-2.33 9.01 -2.66 8.02 -3 7 C-3.78375 6.87625 -4.5675 6.7525 -5.375 6.625 C-8 6 -8 6 -10 4 C-9.01 3.01 -8.02 2.02 -7 1 C-7.66 0.34 -8.32 -0.32 -9 -1 C-5.79937313 -2.60031344 -3.27728194 -1.03173691 0 0 Z " fill="#2F587D" transform="translate(264,367)"/>
<path d="M0 0 C0.66 0 1.32 0 2 0 C2.268125 0.969375 2.53625 1.93875 2.8125 2.9375 C3.204375 3.948125 3.59625 4.95875 4 6 C4.99 6.33 5.98 6.66 7 7 C6.34 8.65 5.68 10.3 5 12 C4.401875 11.649375 3.80375 11.29875 3.1875 10.9375 C0.89186786 9.66695302 0.89186786 9.66695302 -2 11 C-2.92817192 7.37169157 -3.26901295 5.58926645 -1.6875 2.125 C-0.8521875 1.073125 -0.8521875 1.073125 0 0 Z " fill="#629DE3" transform="translate(155,212)"/>
<path d="M0 0 C-2.23522077 1.36804907 -3.50582705 2.05057227 -6.15185547 1.77978516 C-6.92416504 1.57659668 -7.69647461 1.3734082 -8.4921875 1.1640625 C-14.3722397 -0.18124507 -20.11088764 -0.44136298 -26.125 -0.625 C-27.176875 -0.66367187 -28.22875 -0.70234375 -29.3125 -0.7421875 C-31.87483756 -0.83536341 -34.43718779 -0.92117382 -37 -1 C-37 0.65 -37 2.3 -37 4 C-37.33 4 -37.66 4 -38 4 C-38 2.02 -38 0.04 -38 -2 C-33.54284246 -2.25764699 -29.08456118 -2.47588246 -24.625 -2.6875 C-23.37332031 -2.76033203 -22.12164062 -2.83316406 -20.83203125 -2.90820312 C-13.27565745 -3.24448154 -7.05951082 -2.81494647 0 0 Z " fill="#7C96AC" transform="translate(159,324)"/>
<path d="M0 0 C5 7.5 5 7.5 5 10 C2.89758397 10.13496251 0.7927039 10.23197307 -1.3125 10.3125 C-2.48425781 10.37050781 -3.65601563 10.42851562 -4.86328125 10.48828125 C-8 10 -8 10 -9.91796875 7.48046875 C-10.27503906 6.66191406 -10.63210937 5.84335937 -11 5 C-8.03 5.495 -8.03 5.495 -5 6 C-5 6.66 -5 7.32 -5 8 C-3.35 8 -1.7 8 0 8 C0 7.34 0 6.68 0 6 C-0.99 5.34 -1.98 4.68 -3 4 C-2.01 3.67 -1.02 3.34 0 3 C0 2.01 0 1.02 0 0 Z " fill="#4D6A84" transform="translate(164,367)"/>
<path d="M0 0 C0.33 0 0.66 0 1 0 C1.06058594 0.61488281 1.12117188 1.22976563 1.18359375 1.86328125 C1.26738281 2.67152344 1.35117187 3.47976563 1.4375 4.3125 C1.51871094 5.11300781 1.59992188 5.91351563 1.68359375 6.73828125 C1.95265693 9.16087179 1.95265693 9.16087179 3 12 C6.83163192 14.02851102 10.73052871 14.49770926 15 15 C15 15.33 15 15.66 15 16 C9.555 17.485 9.555 17.485 4 19 C3.67 17.35 3.34 15.7 3 14 C1.68 13.34 0.36 12.68 -1 12 C-0.67 8.04 -0.34 4.08 0 0 Z " fill="#41678A" transform="translate(335,352)"/>
<path d="M0 0 C0 3.63 0 7.26 0 11 C-1.32 11.33 -2.64 11.66 -4 12 C-4 11.34 -4 10.68 -4 10 C-3.34 10 -2.68 10 -2 10 C-2.83333333 7.83333333 -2.83333333 7.83333333 -5 7 C-4.67 6.01 -4.34 5.02 -4 4 C-6.31 4 -8.62 4 -11 4 C-7.30030748 0.96096686 -4.76995305 0 0 0 Z " fill="#A3D6E4" transform="translate(173,172)"/>
<path d="M0 0 C2.125 0.375 2.125 0.375 4 1 C4 1.66 4 2.32 4 3 C3.01 3.495 3.01 3.495 2 4 C2 4.66 2 5.32 2 6 C1.34 6 0.68 6 0 6 C-0.66 6.66 -1.32 7.32 -2 8 C-2.33 7.34 -2.66 6.68 -3 6 C-5.64 6 -8.28 6 -11 6 C-10.67 4.68 -10.34 3.36 -10 2 C-7.63591793 1.24011648 -6.30986733 0.9179763 -3.875 1.5625 C-3.25625 1.706875 -2.6375 1.85125 -2 2 C-1.34 1.34 -0.68 0.68 0 0 Z " fill="#7AB0E2" transform="translate(185,189)"/>
<path d="M0 0 C1.32 0.66 2.64 1.32 4 2 C4.125 4.875 4.125 4.875 4 8 C3.34 8.66 2.68 9.32 2 10 C-2.68322981 8.55900621 -2.68322981 8.55900621 -4.0625 6.125 C-4 4 -4 4 -2.0625 1.75 C-1.381875 1.1725 -0.70125 0.595 0 0 Z " fill="#7FD3F5" transform="translate(256,176)"/>
<path d="M0 0 C8.89354888 1.81164885 16.99003236 4.98837109 23 12 C22.01 12.495 22.01 12.495 21 13 C20.34 12.34 19.68 11.68 19 11 C18.13375 10.505 17.2675 10.01 16.375 9.5 C15.59125 9.005 14.8075 8.51 14 8 C14 7.34 14 6.68 14 6 C12.989375 5.855625 11.97875 5.71125 10.9375 5.5625 C5.46875 4.78125 5.46875 4.78125 0 4 C0 2.68 0 1.36 0 0 Z " fill="#A0DFEC" transform="translate(269,116)"/>
<path d="M0 0 C8.58 0 17.16 0 26 0 C25.67 0.99 25.34 1.98 25 3 C17.08 2.67 9.16 2.34 1 2 C0.67 1.34 0.34 0.68 0 0 Z " fill="#73A0BF" transform="translate(235,201)"/>
<path d="M0 0 C1.65 0 3.3 0 5 0 C4.88541307 1.43836751 4.75790884 2.87570966 4.625 4.3125 C4.55539063 5.11300781 4.48578125 5.91351563 4.4140625 6.73828125 C4 9 4 9 2 12 C2.66 12 3.32 12 4 12 C4 12.66 4 13.32 4 14 C3.01 14 2.02 14 1 14 C-1.20808081 8.80451575 -0.93402724 5.41735797 0 0 Z " fill="#6CA9DC" transform="translate(189,175)"/>
<path d="M0 0 C4.09658753 4.09658753 3.07792547 11.51581747 3.125 17 C3.09213239 22.09447915 2.80439253 26.97254669 2 32 C0.07965615 28.76501385 -0.22831257 26.42175609 -0.16015625 22.68359375 C-0.14919922 21.67232422 -0.13824219 20.66105469 -0.12695312 19.61914062 C-0.10568359 18.56919922 -0.08441406 17.51925781 -0.0625 16.4375 C-0.02807597 14.35293369 0.00206663 12.26829103 0.02734375 10.18359375 C0.04531006 9.26118896 0.06327637 8.33878418 0.08178711 7.38842773 C0.10791786 4.85112738 0.10791786 4.85112738 -1 2 C-0.67 1.34 -0.34 0.68 0 0 Z " fill="#ABDEEC" transform="translate(310,156)"/>
<path d="M0 0 C2.31 0.66 4.62 1.32 7 2 C7 5.3 7 8.6 7 12 C6.01 12.33 5.02 12.66 4 13 C1.8125 11.5625 1.8125 11.5625 0 10 C1.32 9.67 2.64 9.34 4 9 C3.72965366 6.56282742 3.72965366 6.56282742 3 4 C2.01 3.34 1.02 2.68 0 2 C0 1.34 0 0.68 0 0 Z " fill="#84ACDD" transform="translate(166,221)"/>
<path d="M0 0 C1.66611905 -0.042721 3.33382885 -0.04063832 5 0 C6 1 6 1 6.0625 4.0625 C6.041875 5.031875 6.02125 6.00125 6 7 C5.01 6.34 4.02 5.68 3 5 C2.34 6.98 1.68 8.96 1 11 C-1 10 -1 10 -3 7 C-1.625 3.3125 -1.625 3.3125 0 0 Z " fill="#295980" transform="translate(357,338)"/>
<path d="M0 0 C0 1.66666667 0 3.33333333 0 5 C-3.01324195 6.50662097 -5.68286377 6.17770373 -9 6 C-9.66 5.34 -10.32 4.68 -11 4 C-11 3.01 -11 2.02 -11 1 C-5.555 0.505 -5.555 0.505 0 0 Z " fill="#67A1DB" transform="translate(206,187)"/>
<path d="M0 0 C0.99 0.33 1.98 0.66 3 1 C3 1.66 3 2.32 3 3 C3.66 3 4.32 3 5 3 C5.33 3.99 5.66 4.98 6 6 C2.86650268 7.04449911 2.01031744 6.93423645 -1 6 C-1.66 7.32 -2.32 8.64 -3 10 C-3.66 9.67 -4.32 9.34 -5 9 C-4.37315423 6.07471973 -3.51695295 3.58774327 -2 1 C-1.34 0.67 -0.68 0.34 0 0 Z " fill="#78C8E4" transform="translate(157,180)"/>
<path d="M0 0 C11.4681489 -0.34176603 22.61855043 0.71758315 34 2 C34 3.32 34 4.64 34 6 C33.42459473 5.79721436 32.84918945 5.59442871 32.25634766 5.38549805 C25.30797192 3.1007709 18.65105993 2.294329 11.375 1.8125 C10.27542969 1.73064453 9.17585937 1.64878906 8.04296875 1.56445312 C5.36253312 1.36633397 2.68180892 1.17838161 0 1 C0 0.67 0 0.34 0 0 Z " fill="#99D7E9" transform="translate(237,144)"/>
<path d="M0 0 C12.54 0 25.08 0 38 0 C38 0.33 38 0.66 38 1 C36.96875 1.12375 35.9375 1.2475 34.875 1.375 C31.37883154 1.93889814 28.31602373 2.78682059 25 4 C24.67 3.34 24.34 2.68 24 2 C16.08 1.67 8.16 1.34 0 1 C0 0.67 0 0.34 0 0 Z " fill="#98DBE7" transform="translate(231,115)"/>
<path d="M0 0 C0.33 0.66 0.66 1.32 1 2 C1.66 2 2.32 2 3 2 C3.33 3.65 3.66 5.3 4 7 C0.62182575 7.84454356 -1.67465243 8.10844919 -5 7 C-4.67 6.34 -4.34 5.68 -4 5 C-4.66 4.67 -5.32 4.34 -6 4 C-6 3.34 -6 2.68 -6 2 C-4.02 1.34 -2.04 0.68 0 0 Z " fill="#2A5B87" transform="translate(278,337)"/>
<path d="M0 0 C0.66 0.66 1.32 1.32 2 2 C5.58343976 2.16677282 5.58343976 2.16677282 9 2 C9 2.33 9 2.66 9 3 C6.69 3.66 4.38 4.32 2 5 C2.65585189 8.60992379 2.65585189 8.60992379 4 12 C1.69 11.34 -0.62 10.68 -3 10 C-3.36923077 4.58461538 -3.36923077 4.58461538 -1.5 1.625 C-1.005 1.08875 -0.51 0.5525 0 0 Z " fill="#82B7EA" transform="translate(173,192)"/>
<path d="M0 0 C0.66 0 1.32 0 2 0 C2 5.61 2 11.22 2 17 C-1.96 17 -5.92 17 -10 17 C-10 16.67 -10 16.34 -10 16 C-6.7 15.67 -3.4 15.34 0 15 C0 10.05 0 5.1 0 0 Z " fill="#728DA5" transform="translate(132,360)"/>
<path d="M0 0 C0.66 0 1.32 0 2 0 C2 0.66 2 1.32 2 2 C2.66 2 3.32 2 4 2 C4.22692276 5.32820054 4.32162419 7.41801336 2.6875 10.375 C1 12 1 12 -2 12 C-1.34 9.69 -0.68 7.38 0 5 C-0.66 4.67 -1.32 4.34 -2 4 C-1.34 2.68 -0.68 1.36 0 0 Z " fill="#2D5983" transform="translate(157,325)"/>
<path d="M0 0 C2.6875 0.875 2.6875 0.875 5 2 C4.34 3.32 3.68 4.64 3 6 C3.804375 6.268125 4.60875 6.53625 5.4375 6.8125 C6.283125 7.204375 7.12875 7.59625 8 8 C8.33 8.99 8.66 9.98 9 11 C5.12697862 9.85569823 1.99736561 8.76679902 -1 6 C-1 5.34 -1 4.68 -1 4 C-1.66 4 -2.32 4 -3 4 C-3 3.34 -3 2.68 -3 2 C-2.01 1.34 -1.02 0.68 0 0 Z " fill="#597B9C" transform="translate(253,366)"/>
<path d="M0 0 C1.32 0 2.64 0 4 0 C4 0.66 4 1.32 4 2 C5.32 1.67 6.64 1.34 8 1 C8.66 1.99 9.32 2.98 10 4 C8.02 4 6.04 4 4 4 C3.67 4.66 3.34 5.32 3 6 C2.67 5.67 2.34 5.34 2 5 C1.01 5.99 0.02 6.98 -1 8 C-1.66 7.67 -2.32 7.34 -3 7 C-1.125 2.25 -1.125 2.25 0 0 Z " fill="#487096" transform="translate(178,362)"/>
<path d="M0 0 C5.71428571 0.71428571 5.71428571 0.71428571 7 2 C7.04080783 3.99958364 7.04254356 6.00045254 7 8 C4.69 7.34 2.38 6.68 0 6 C-0.38218767 4.34385343 -0.71395102 2.67542976 -1 1 C-0.67 0.67 -0.34 0.34 0 0 Z " fill="#305C87" transform="translate(239,319)"/>
<path d="M0 0 C3.08089673 2.77280706 4.68775452 5.06326356 6 9 C5 10 5 10 1.62109375 10.09765625 C0.22652923 10.09098369 -1.16801743 10.07902532 -2.5625 10.0625 C-3.62887695 10.05573242 -3.62887695 10.05573242 -4.71679688 10.04882812 C-6.47790013 10.03700864 -8.23896036 10.01907263 -10 10 C-10 9.67 -10 9.34 -10 9 C-4.06 8.505 -4.06 8.505 2 8 C1.34 5.36 0.68 2.72 0 0 Z " fill="#ABCEEB" transform="translate(310,287)"/>
<path d="M0 0 C0.33 0 0.66 0 1 0 C1.061875 1.299375 1.12375 2.59875 1.1875 3.9375 C1.76059356 9.40793853 4.0714003 13.42879088 7 18 C5.68 18.33 4.36 18.66 3 19 C1 16 1 16 1 12 C0.34 11.67 -0.32 11.34 -1 11 C-1 7.21293268 -0.5745952 3.73486879 0 0 Z " fill="#87B7E3" transform="translate(156,200)"/>
<path d="M0 0 C0.81434143 2.85160391 1.11881242 5.36626131 1.09765625 8.328125 C1.09282227 9.52695313 1.09282227 9.52695313 1.08789062 10.75 C1.07951172 11.575 1.07113281 12.4 1.0625 13.25 C1.05798828 14.09046875 1.05347656 14.9309375 1.04882812 15.796875 C1.03707961 17.86461401 1.01914522 19.93231624 1 22 C-2.42184913 18.57815087 -2.07154913 14.07553481 -2.1875 9.4375 C-2.15749773 5.8852317 -1.65357233 3.2037964 0 0 Z " fill="#8FBBE2" transform="translate(148,193)"/>
<path d="M0 0 C0 1.32 0 2.64 0 4 C-0.99 4.495 -0.99 4.495 -2 5 C-1.01 5.66 -0.02 6.32 1 7 C0.67 7.66 0.34 8.32 0 9 C-2.32156597 9.40729228 -4.6568787 9.74438677 -7 10 C-6.34 9.67 -5.68 9.34 -5 9 C-5 8.34 -5 7.68 -5 7 C-5.66 7 -6.32 7 -7 7 C-5.84933177 3.5479953 -4.01648928 0 0 0 Z " fill="#2A547C" transform="translate(164,366)"/>
<path d="M0 0 C1.875 1.5625 1.875 1.5625 3 3 C2.13375 2.95875 1.2675 2.9175 0.375 2.875 C-3.12353543 3.00457539 -5.71109136 3.87878115 -9 5 C-9.66 4.67 -10.32 4.34 -11 4 C-10 1 -10 1 -8.3125 -0.25 C-5.17503524 -1.26755614 -3.15660086 -0.87310237 0 0 Z " fill="#95CAE4" transform="translate(242,152)"/>
<path d="M0 0 C0.66 0 1.32 0 2 0 C2.33 0.66 2.66 1.32 3 2 C3.495 2.61875 3.99 3.2375 4.5 3.875 C5.98963812 5.98532067 6.55094336 7.48528282 7 10 C5.35 10 3.7 10 2 10 C2 9.34 2 8.68 2 8 C1.01 7.67 0.02 7.34 -1 7 C-1.04254356 5.00045254 -1.04080783 2.99958364 -1 1 C-0.67 0.67 -0.34 0.34 0 0 Z " fill="#27587E" transform="translate(355,362)"/>
<path d="M0 0 C-0.33 1.65 -0.66 3.3 -1 5 C-4 5 -4 5 -6 4 C-8.204364 3.77049681 -10.41392173 3.58924067 -12.625 3.4375 C-13.81351563 3.35371094 -15.00203125 3.26992188 -16.2265625 3.18359375 C-17.59941406 3.09271484 -17.59941406 3.09271484 -19 3 C-19 2.67 -19 2.34 -19 2 C-18.16855469 1.93941406 -17.33710938 1.87882812 -16.48046875 1.81640625 C-14.85044922 1.69072266 -14.85044922 1.69072266 -13.1875 1.5625 C-12.10855469 1.48128906 -11.02960938 1.40007812 -9.91796875 1.31640625 C-6.3554455 0.93010855 -3.65278001 0 0 0 Z " fill="#7190AB" transform="translate(157,330)"/>
<path d="M0 0 C1 2 1 2 0.4375 5.5625 C-0.26315136 10.33568739 0.71279286 14.40435138 2 19 C0.02 19.99 0.02 19.99 -2 21 C-2.33 20.34 -2.66 19.68 -3 19 C-2.01 19 -1.02 19 0 19 C-0.99 17.68 -1.98 16.36 -3 15 C-2.34 15 -1.68 15 -1 15 C-1.391875 13.824375 -1.78375 12.64875 -2.1875 11.4375 C-3.41819282 6.67599192 -2.29798544 4.24243466 0 0 Z " fill="#99C2E7" transform="translate(189,173)"/>
<path d="M0 0 C0.33 0 0.66 0 1 0 C1.10823773 2.24893954 1.18569645 4.49937575 1.25 6.75 C1.29640625 8.00296875 1.3428125 9.2559375 1.390625 10.546875 C1 14 1 14 -1.015625 16.453125 C-1.67046875 16.96359375 -2.3253125 17.4740625 -3 18 C-3.66 17.67 -4.32 17.34 -5 17 C-4.54625 15.865625 -4.0925 14.73125 -3.625 13.5625 C-1.95044189 9.12611146 -0.9139955 4.64524772 0 0 Z " fill="#97C4D6" transform="translate(283,171)"/>
<path d="M0 0 C2.5 1.5 2.5 1.5 4 4 C4.31584913 6.75841574 4.1862657 9.20601454 4 12 C3.67 12 3.34 12 3 12 C2.896875 11.071875 2.79375 10.14375 2.6875 9.1875 C1.96568192 5.84088892 1.65412818 4.99059614 -1 3 C-3.28330101 2.63853543 -3.28330101 2.63853543 -5.6875 2.8125 C-6.89986328 2.85310547 -6.89986328 2.85310547 -8.13671875 2.89453125 C-8.75160156 2.92933594 -9.36648437 2.96414062 -10 3 C-10 2.34 -10 1.68 -10 1 C-6.79158965 -0.60420518 -3.4806013 -0.47462745 0 0 Z " fill="#97C4E4" transform="translate(260,173)"/>
<path d="M0 0 C1.32 0.33 2.64 0.66 4 1 C3.8125 3.375 3.8125 3.375 3 6 C0.4375 7.3125 0.4375 7.3125 -2 8 C-2.33 7.01 -2.66 6.02 -3 5 C-1.5625 2.3125 -1.5625 2.3125 0 0 Z " fill="#315981" transform="translate(179,338)"/>
<path d="M0 0 C0 3.28176588 -0.47835901 5.10888212 -2 8 C-4.125 8.8125 -4.125 8.8125 -6 9 C-6.33 6.69 -6.66 4.38 -7 2 C-4.69 1.34 -2.38 0.68 0 0 Z " fill="#2E5B82" transform="translate(236,318)"/>
<path d="M0 0 C0 1.65 0 3.3 0 5 C-3.375 5.125 -3.375 5.125 -7 5 C-7.66 4.34 -8.32 3.68 -9 3 C-7.14340032 -0.71319936 -3.69365381 -0.09982848 0 0 Z " fill="#73B1E1" transform="translate(207,195)"/>
<path d="M0 0 C2 2 2 2 2.125 5.625 C2.08375 6.73875 2.0425 7.8525 2 9 C4.31 9.33 6.62 9.66 9 10 C9 10.33 9 10.66 9 11 C6.03 11 3.06 11 0 11 C-1.62651522 7.74696956 -1.11453156 4.60774398 -1 1 C-0.67 0.67 -0.34 0.34 0 0 Z " fill="#76B8E1" transform="translate(232,155)"/>
<path d="M0 0 C0.33 0 0.66 0 1 0 C0.59573665 5.86181863 -0.2028686 9.2823519 -4 14 C-4.99 14.495 -4.99 14.495 -6 15 C-6.33 13.68 -6.66 12.36 -7 11 C-5.68 11 -4.36 11 -3 11 C-3.33 9.02 -3.66 7.04 -4 5 C-2.68 4.67 -1.36 4.34 0 4 C0 2.68 0 1.36 0 0 Z " fill="#65819E" transform="translate(368,357)"/>
<path d="M0 0 C0.84304687 0.22816406 1.68609375 0.45632812 2.5546875 0.69140625 C3.65039062 0.97886719 4.74609375 1.26632813 5.875 1.5625 C7.51082031 1.99755859 7.51082031 1.99755859 9.1796875 2.44140625 C11.9369822 3.2867036 11.9369822 3.2867036 14 2 C13.34 3.98 12.68 5.96 12 8 C11.34 8 10.68 8 10 8 C10 7.34 10 6.68 10 6 C7.98177083 5.609375 5.96354167 5.21875 3.9453125 4.828125 C2 4 2 4 0.7421875 1.921875 C0.37480469 0.97054687 0.37480469 0.97054687 0 0 Z " fill="#A5C5E7" transform="translate(171,202)"/>
<path d="M0 0 C0.99 0.33 1.98 0.66 3 1 C-2.56942446 5.54347785 -5.51303934 6.13754504 -12.625 6.0625 C-13.42679687 6.05798828 -14.22859375 6.05347656 -15.0546875 6.04882812 C-17.03649006 6.03703168 -19.01825433 6.01909605 -21 6 C-21 5.67 -21 5.34 -21 5 C-15.72 5 -10.44 5 -5 5 C-4.67 4.01 -4.34 3.02 -4 2 C-2.68 2 -1.36 2 0 2 C0 1.34 0 0.68 0 0 Z " fill="#607992" transform="translate(359,371)"/>
<path d="M0 0 C-0.1875 1.8125 -0.1875 1.8125 -1 4 C-5.17857143 7 -5.17857143 7 -8 7 C-8 6.34 -8 5.68 -8 5 C-10.31 5 -12.62 5 -15 5 C-15 4.67 -15 4.34 -15 4 C-14.39671875 3.87882812 -13.7934375 3.75765625 -13.171875 3.6328125 C-12.37265625 3.46523438 -11.5734375 3.29765625 -10.75 3.125 C-9.96109375 2.96257812 -9.1721875 2.80015625 -8.359375 2.6328125 C-5.40895851 1.84147563 -3.04850362 0 0 0 Z " fill="#708BA3" transform="translate(282,363)"/>
<path d="M0 0 C3.33557632 2.9905167 5.15083921 5.93184627 7 10 C4.625 10.625 4.625 10.625 2 11 C0 9 0 9 -0.1953125 6.8359375 C-0.17210937 6.02382812 -0.14890625 5.21171875 -0.125 4.375 C-0.10695313 3.55773437 -0.08890625 2.74046875 -0.0703125 1.8984375 C-0.04710937 1.27195313 -0.02390625 0.64546875 0 0 Z " fill="#93C7E9" transform="translate(273,229)"/>
<path d="M0 0 C0.66 0.33 1.32 0.66 2 1 C2 1.99 2 2.98 2 4 C4.97 4.495 4.97 4.495 8 5 C8 5.33 8 5.66 8 6 C9.65 6.33 11.3 6.66 13 7 C13 7.33 13 7.66 13 8 C6.70542497 8.6556849 2.9206404 6.96051545 -2 3 C-2.33 2.34 -2.66 1.68 -3 1 C-2.01 0.67 -1.02 0.34 0 0 Z " fill="#5F7B95" transform="translate(180,369)"/>
<path d="M0 0 C0.99 0 1.98 0 3 0 C3 3.96 3 7.92 3 12 C1.35 11.67 -0.3 11.34 -2 11 C-1.67 10.484375 -1.34 9.96875 -1 9.4375 C0.32010877 6.21973488 0.13242105 3.4429472 0 0 Z " fill="#4A6B8B" transform="translate(155,337)"/>
<path d="M0 0 C2.475 0.99 2.475 0.99 5 2 C4.67 3.65 4.34 5.3 4 7 C2.35 7 0.7 7 -1 7 C-1.04254356 5.00045254 -1.04080783 2.99958364 -1 1 C-0.67 0.67 -0.34 0.34 0 0 Z " fill="#2F5B80" transform="translate(218,336)"/>
<path d="M0 0 C3.33557632 2.9905167 5.15083921 5.93184627 7 10 C6.34 10 5.68 10 5 10 C5 9.34 5 8.68 5 8 C4.0409375 8.2784375 4.0409375 8.2784375 3.0625 8.5625 C2.381875 8.706875 1.70125 8.85125 1 9 C0 8 0 8 -0.09765625 6.15234375 C-0.06510417 4.1015625 -0.03255208 2.05078125 0 0 Z " fill="#94C6E5" transform="translate(280,240)"/>
<path d="M0 0 C1.32 0.33 2.64 0.66 4 1 C3.67 1.66 3.34 2.32 3 3 C4.32 3.66 5.64 4.32 7 5 C7 5.99 7 6.98 7 8 C6.34 8 5.68 8 5 8 C4.67 8.66 4.34 9.32 4 10 C1.8480563 6.77208445 1.79913557 5.71599191 2 2 C1.34 2 0.68 2 0 2 C0 1.34 0 0.68 0 0 Z " fill="#6CA9DD" transform="translate(206,175)"/>
<path d="M0 0 C2.57781906 2.57781906 2.62129616 4.4401839 3 8 C2.67 8.33 2.34 8.66 2 9 C-0.69082872 8.82364548 -3.32851446 8.38164079 -6 8 C-6 7.67 -6 7.34 -6 7 C-4.02 6.67 -2.04 6.34 0 6 C-0.99 4.35 -1.98 2.7 -3 1 C-2.01 0.67 -1.02 0.34 0 0 Z " fill="#607EA4" transform="translate(277,344)"/>
<path d="M0 0 C0.99 0.66 1.98 1.32 3 2 C2.34 2 1.68 2 1 2 C1 2.99 1 3.98 1 5 C1.66 5.66 2.32 6.32 3 7 C0 7 0 7 -2.375 5.5625 C-5.00473952 3.99717886 -6.99788375 3.42887375 -10 3 C-10 2.67 -10 2.34 -10 2 C-3.375 0.75 -3.375 0.75 0 3 C0 2.01 0 1.02 0 0 Z " fill="#5B7D9B" transform="translate(354,341)"/>
<path d="M0 0 C1.32257813 0.46986328 1.32257813 0.46986328 2.671875 0.94921875 C3.56390625 1.25472656 4.4559375 1.56023437 5.375 1.875 C6.05046875 2.12636719 6.7259375 2.37773437 7.421875 2.63671875 C4.98848848 4.17179903 3.75062993 4.66760179 0.84375 4.39453125 C-0.47882813 4.08128906 -0.47882813 4.08128906 -1.828125 3.76171875 C-2.72015625 3.55804688 -3.6121875 3.354375 -4.53125 3.14453125 C-5.20671875 2.97695313 -5.8821875 2.809375 -6.578125 2.63671875 C-3.30022566 -0.4650318 -3.30022566 -0.4650318 0 0 Z " fill="#6687A2" transform="translate(151.578125,321.36328125)"/>
<path d="M0 0 C0.66 0.33 1.32 0.66 2 1 C2 3.31 2 5.62 2 8 C1.01 7.67 0.02 7.34 -1 7 C-1.99 7 -2.98 7 -4 7 C-3.39816251 4.97954558 -2.72693904 2.97888961 -2 1 C-1.34 0.67 -0.68 0.34 0 0 Z " fill="#487092" transform="translate(228,319)"/>
<path d="M0 0 C2.97 0.495 2.97 0.495 6 1 C6 1.66 6 2.32 6 3 C9.3 3.33 12.6 3.66 16 4 C16 4.33 16 4.66 16 5 C13.89758397 5.13496251 11.7927039 5.23197307 9.6875 5.3125 C8.51574219 5.37050781 7.34398437 5.42851562 6.13671875 5.48828125 C3 5 3 5 1.08203125 2.48046875 C0.72496094 1.66191406 0.36789063 0.84335937 0 0 Z " fill="#849EB4" transform="translate(153,372)"/>
<path d="M0 0 C0.33 0 0.66 0 1 0 C1.06058594 0.61488281 1.12117188 1.22976563 1.18359375 1.86328125 C1.26738281 2.67152344 1.35117187 3.47976563 1.4375 4.3125 C1.51871094 5.11300781 1.59992188 5.91351563 1.68359375 6.73828125 C1.95265693 9.16087179 1.95265693 9.16087179 3 12 C3.99 12.33 4.98 12.66 6 13 C5.01 13.33 4.02 13.66 3 14 C1.68 13.34 0.36 12.68 -1 12 C-0.67 8.04 -0.34 4.08 0 0 Z " fill="#6887A0" transform="translate(335,352)"/>
<path d="M0 0 C2.86476895 0.63661532 4.56043256 1.36795116 6.2578125 3.80859375 C7.33945344 5.86976268 8.32048955 7.77173522 9 10 C8.67 10.99 8.34 11.98 8 13 C6.8529806 11.20909242 5.70742065 9.41725003 4.5625 7.625 C3.60537109 6.12839844 3.60537109 6.12839844 2.62890625 4.6015625 C1 2 1 2 0 0 Z " fill="#9BC8E5" transform="translate(257,261)"/>
<path d="M0 0 C2.97 0 5.94 0 9 0 C9.33 1.32 9.66 2.64 10 4 C8.68 4.33 7.36 4.66 6 5 C6 4.34 6 3.68 6 3 C5.38125 2.87625 4.7625 2.7525 4.125 2.625 C2 2 2 2 0 0 Z " fill="#6CACDB" transform="translate(197,170)"/>
<path d="M0 0 C0.99 0 1.98 0 3 0 C5 2 5 2 5 6 C3.35 6.66 1.7 7.32 0 8 C0 5.36 0 2.72 0 0 Z " fill="#275985" transform="translate(250,360)"/>
<path d="M0 0 C0.66 0.33 1.32 0.66 2 1 C0.87548273 3.9719385 -0.22293791 6.33440687 -2 9 C-2.66 9 -3.32 9 -4 9 C-4.33 9.66 -4.66 10.32 -5 11 C-4.67 8.36 -4.34 5.72 -4 3 C-2.02 3.495 -2.02 3.495 0 4 C0 2.68 0 1.36 0 0 Z " fill="#8FB2E5" transform="translate(202,278)"/>
<path d="M0 0 C0.66 0 1.32 0 2 0 C1.25 6.625 1.25 6.625 -1 10 C-1.99 10 -2.98 10 -4 10 C-2.99806563 6.20696275 -2.18975773 3.28463659 0 0 Z " fill="#629BE6" transform="translate(203,272)"/>
<path d="M0 0 C1.32 0.66 2.64 1.32 4 2 C2.60667426 5.36720387 1.0210714 6.9859524 -2 9 C-2.66 8.67 -3.32 8.34 -4 8 C-3.525625 7.608125 -3.05125 7.21625 -2.5625 6.8125 C-0.64820367 4.59191626 -0.38733012 2.86624291 0 0 Z " fill="#63809B" transform="translate(283,366)"/>
<path d="M0 0 C1.41777182 0.08785338 2.83429039 0.19604647 4.25 0.3125 C5.43335938 0.39951172 5.43335938 0.39951172 6.640625 0.48828125 C9 1 9 1 13 4 C6.07 3.505 6.07 3.505 -1 3 C-0.67 2.01 -0.34 1.02 0 0 Z " fill="#617F99" transform="translate(347,334)"/>
<path d="M0 0 C1.06528748 2.73019786 1.07998186 3.79298812 0.00390625 6.578125 C-0.47175781 7.45984375 -0.94742187 8.3415625 -1.4375 9.25 C-1.91058594 10.14203125 -2.38367188 11.0340625 -2.87109375 11.953125 C-3.24363281 12.62859375 -3.61617188 13.3040625 -4 14 C-4.66 12.68 -5.32 11.36 -6 10 C-5.34 10 -4.68 10 -4 10 C-3.896875 9.278125 -3.79375 8.55625 -3.6875 7.8125 C-2.94013068 4.75508007 -1.71954811 2.61670365 0 0 Z " fill="#9CC4D7" transform="translate(309,191)"/>
<path d="M0 0 C-0.99 0 -1.98 0 -3 0 C-3 1.32 -3 2.64 -3 4 C-5.97 4 -8.94 4 -12 4 C-8.26195079 0.26195079 -5.24318757 -1.94192132 0 0 Z " fill="#97C4E3" transform="translate(202,196)"/>
<path d="M0 0 C1.051875 -0.02126953 1.051875 -0.02126953 2.125 -0.04296875 C4 0.1875 4 0.1875 6 2.1875 C1.05 2.8475 -3.9 3.5075 -9 4.1875 C-5.66072082 0.84822082 -4.50824577 0.04143608 0 0 Z " fill="#9FC8E7" transform="translate(200,167.8125)"/>
<path d="M0 0 C2.625 0.375 2.625 0.375 5 1 C4.67 2.32 4.34 3.64 4 5 C2.35 5 0.7 5 -1 5 C-1.33 4.01 -1.66 3.02 -2 2 C-1.34 1.34 -0.68 0.68 0 0 Z " fill="#8BE0F7" transform="translate(237,157)"/>
<path d="M0 0 C0.66 0 1.32 0 2 0 C2.85743651 4.39436211 3.08948558 8.52572076 3 13 C0.41073669 10.41073669 0.62601957 8.97294721 0.375 5.375 C0.30023438 4.37210937 0.22546875 3.36921875 0.1484375 2.3359375 C0.09945312 1.56507813 0.05046875 0.79421875 0 0 Z " fill="#718EA3" transform="translate(171,352)"/>
<path d="M0 0 C-0.7115625 0.680625 -0.7115625 0.680625 -1.4375 1.375 C-3.09027808 2.93258204 -3.09027808 2.93258204 -4 5 C-1.03 5 1.94 5 5 5 C5 5.33 5 5.66 5 6 C1.7 6 -1.6 6 -5 6 C-5.66 4.02 -6.32 2.04 -7 0 C-3.86650268 -1.04449911 -3.01031744 -0.93423645 0 0 Z " fill="#8BA2B6" transform="translate(263,346)"/>
<path d="M0 0 C6.75 0.875 6.75 0.875 9 2 C8.67 3.98 8.34 5.96 8 8 C7.79375 7.38125 7.5875 6.7625 7.375 6.125 C5.45224112 3.15346355 3.33405473 2.86975341 0 2 C0 1.34 0 0.68 0 0 Z " fill="#4B6981" transform="translate(239,317)"/>
<path d="M0 0 C0.99 0.66 1.98 1.32 3 2 C2.67 3.32 2.34 4.64 2 6 C0.35 6 -1.3 6 -3 6 C-3.33 4.68 -3.66 3.36 -4 2 C-3.01 2.33 -2.02 2.66 -1 3 C-0.67 2.01 -0.34 1.02 0 0 Z " fill="#5D9CE2" transform="translate(168,224)"/>
<path d="M0 0 C0.99 0 1.98 0 3 0 C3 3.63 3 7.26 3 11 C2.34 11 1.68 11 1 11 C0.67 7.37 0.34 3.74 0 0 Z " fill="#7291A8" transform="translate(212,349)"/>
<path d="M0 0 C1.98 0.66 3.96 1.32 6 2 C6 2.66 6 3.32 6 4 C3.69 4.33 1.38 4.66 -1 5 C-1.33 4.01 -1.66 3.02 -2 2 C-1.34 2 -0.68 2 0 2 C0 1.34 0 0.68 0 0 Z " fill="#72A0C1" transform="translate(273,224)"/>
<path d="M0 0 C0.99 0 1.98 0 3 0 C3.33 1.65 3.66 3.3 4 5 C2.68 5 1.36 5 0 5 C0 5.99 0 6.98 0 8 C-0.66 8 -1.32 8 -2 8 C-1.125 2.25 -1.125 2.25 0 0 Z " fill="#85B7E0" transform="translate(180,210)"/>
<path d="M0 0 C0.99 0.33 1.98 0.66 3 1 C2.67 2.98 2.34 4.96 2 7 C-0.31 7 -2.62 7 -5 7 C-3.68 6.67 -2.36 6.34 -1 6 C-0.67 4.02 -0.34 2.04 0 0 Z " fill="#325C7E" transform="translate(243,336)"/>
<path d="M0 0 C1.32 0 2.64 0 4 0 C3.67 1.65 3.34 3.3 3 5 C1.35 5 -0.3 5 -2 5 C-1.34 3.35 -0.68 1.7 0 0 Z " fill="#85DEF7" transform="translate(177,197)"/>
<path d="M0 0 C2.97 0.495 2.97 0.495 6 1 C4.68 1.33 3.36 1.66 2 2 C2.061875 2.928125 2.12375 3.85625 2.1875 4.8125 C2 8 2 8 -1 11 C-0.67 7.37 -0.34 3.74 0 0 Z " fill="#72B8D1" transform="translate(284,171)"/>
<path d="M0 0 C2.87839991 1.2903172 5.09054786 2.45406381 7 5 C7.6875 8.1875 7.6875 8.1875 8 11 C4.32966073 7.72291137 2.30718811 4.28477792 0 0 Z " fill="#A0C8E7" transform="translate(240,235)"/>
<path d="M0 0 C0.99 0.33 1.98 0.66 3 1 C2.01 2.98 1.02 4.96 0 7 C-0.66 7 -1.32 7 -2 7 C-2.33 7.66 -2.66 8.32 -3 9 C-2.5020163 5.26512223 -2.12508244 3.18762365 0 0 Z " fill="#90B7CE" transform="translate(301,204)"/>
<path d="M0 0 C0.99 0 1.98 0 3 0 C3 2.31 3 4.62 3 7 C1.68 7.33 0.36 7.66 -1 8 C-0.67 5.36 -0.34 2.72 0 0 Z " fill="#73B3E7" transform="translate(260,178)"/>
<path d="M0 0 C1.46313772 0.76167457 2.92036661 1.53470707 4.375 2.3125 C5.18710937 2.74175781 5.99921875 3.17101562 6.8359375 3.61328125 C9 5 9 5 11 8 C10.01 8.495 10.01 8.495 9 9 C8.34 8.34 7.68 7.68 7 7 C5.700625 6.2575 5.700625 6.2575 4.375 5.5 C3.59125 5.005 2.8075 4.51 2 4 C2 3.34 2 2.68 2 2 C1.34 2 0.68 2 0 2 C0 1.34 0 0.68 0 0 Z " fill="#ACE2EF" transform="translate(281,120)"/>
<path d="M0 0 C0.66 1.32 1.32 2.64 2 4 C1.34 4.66 0.68 5.32 0 6 C-1.32 6 -2.64 6 -4 6 C-4 5.34 -4 4.68 -4 4 C-3.34 4 -2.68 4 -2 4 C-2 3.01 -2 2.02 -2 1 C-1.34 0.67 -0.68 0.34 0 0 Z " fill="#6998DB" transform="translate(195,285)"/>
<path d="M0 0 C0.66 0 1.32 0 2 0 C4 3 4 3 4 7 C4.66 7 5.32 7 6 7 C6.33 8.32 6.66 9.64 7 11 C6.34 10.67 5.68 10.34 5 10 C5 9.34 5 8.68 5 8 C4.34 8 3.68 8 3 8 C0 2.25 0 2.25 0 0 Z " fill="#A3D3E8" transform="translate(140,125)"/>
<path d="M0 0 C2.0625 0.4375 2.0625 0.4375 4 1 C3.67 2.65 3.34 4.3 3 6 C2.01 6 1.02 6 0 6 C-0.38218767 4.34385343 -0.71395102 2.67542976 -1 1 C-0.67 0.67 -0.34 0.34 0 0 Z " fill="#295A7F" transform="translate(239,319)"/>
<path d="M0 0 C3.08089673 2.77280706 4.68775452 5.06326356 6 9 C3.5625 7.875 3.5625 7.875 1 6 C0.1875 2.8125 0.1875 2.8125 0 0 Z " fill="#A0CDE7" transform="translate(289,254)"/>
<path d="M0 0 C2.125 0.9375 2.125 0.9375 4 2 C0.5647952 4.29013653 -0.985331 4.17842973 -5 4 C-3.36587557 2.29159719 -2.13093906 1.06546953 0 0 Z " fill="#597B94" transform="translate(205,363)"/>
<path d="M0 0 C-0.33 0.99 -0.66 1.98 -1 3 C-3.64 2.67 -6.28 2.34 -9 2 C-5.86501708 0.14223235 -3.62528568 -0.20140476 0 0 Z " fill="#6689A2" transform="translate(267,334)"/>
<path d="M0 0 C2 2.66666667 4 5.33333333 6 8 C5.67 8.66 5.34 9.32 5 10 C3.0625 8.9375 3.0625 8.9375 1 7 C0.25 3.3125 0.25 3.3125 0 0 Z " fill="#ABCDE6" transform="translate(300,270)"/>
<path d="M0 0 C0.66 0.99 1.32 1.98 2 3 C0.68799596 4.35432675 -0.64631404 5.68733482 -2 7 C-2.33 7 -2.66 7 -3 7 C-3.1875 4.625 -3.1875 4.625 -3 2 C-2.01 1.34 -1.02 0.68 0 0 Z " fill="#60A0C3" transform="translate(293,208)"/>
<path d="M0 0 C0.99 0 1.98 0 3 0 C3 0.66 3 1.32 3 2 C-0.08888522 4.05925681 -0.70935927 4.2390374 -4.1875 4.125 C-6.0746875 4.063125 -6.0746875 4.063125 -8 4 C-8.33 3.34 -8.66 2.68 -9 2 C-6.36 2.33 -3.72 2.66 -1 3 C-0.67 2.01 -0.34 1.02 0 0 Z " fill="#A6C5E6" transform="translate(260,185)"/>
<path d="M0 0 C0 0.66 0 1.32 0 2 C-0.639375 2.12375 -1.27875 2.2475 -1.9375 2.375 C-2.618125 2.58125 -3.29875 2.7875 -4 3 C-4.33 3.66 -4.66 4.32 -5 5 C-5 4.01 -5 3.02 -5 2 C-6.32 2.33 -7.64 2.66 -9 3 C-8 1 -8 1 -6.1875 0.375 C-4 0 -4 0 0 0 Z " fill="#8CBCE2" transform="translate(199,173)"/>
<path d="M0 0 C7.57142857 1.85714286 7.57142857 1.85714286 10 5 C5.27635085 5 3.7011388 3.7758541 0 1 C0 0.67 0 0.34 0 0 Z " fill="#A1CFE4" transform="translate(147,136)"/>
<path d="M0 0 C0.99 0 1.98 0 3 0 C3.66 1.65 4.32 3.3 5 5 C3.02 5.99 3.02 5.99 1 7 C0.67 4.69 0.34 2.38 0 0 Z " fill="#9BC5E8" transform="translate(305,281)"/>
<path d="M0 0 C1.65 0 3.3 0 5 0 C5.66 1.32 6.32 2.64 7 4 C2.25 3.125 2.25 3.125 0 2 C0 1.34 0 0.68 0 0 Z " fill="#87B4DE" transform="translate(190,189)"/>
<path d="M0 0 C0.33 0.66 0.66 1.32 1 2 C-0.65 4.31 -2.3 6.62 -4 9 C-4.33 8.01 -4.66 7.02 -5 6 C-4.34 6 -3.68 6 -3 6 C-2.87625 5.195625 -2.7525 4.39125 -2.625 3.5625 C-2.41875 2.716875 -2.2125 1.87125 -2 1 C-1.34 0.67 -0.68 0.34 0 0 Z " fill="#A8C8E7" transform="translate(213,182)"/>
<path d="M0 0 C0.66 0 1.32 0 2 0 C2 0.66 2 1.32 2 2 C2.99 2.33 3.98 2.66 5 3 C5 4.32 5 5.64 5 7 C4.34 7 3.68 7 3 7 C3 6.01 3 5.02 3 4 C2.01 3.67 1.02 3.34 0 3 C0 2.01 0 1.02 0 0 Z " fill="#2B587F" transform="translate(153,348)"/>
<path d="M0 0 C0.99 0 1.98 0 3 0 C2.67 1.65 2.34 3.3 2 5 C1.01 4.67 0.02 4.34 -1 4 C-0.67 2.68 -0.34 1.36 0 0 Z " fill="#8FE6F6" transform="translate(255,179)"/>
<path d="M0 0 C1.7074998 1.28062485 3.37373596 2.61767557 5 4 C5 4.66 5 5.32 5 6 C3.68 6.33 2.36 6.66 1 7 C0.67 4.69 0.34 2.38 0 0 Z " fill="#B1E5EF" transform="translate(294,129)"/>
</svg>
